<?xml version="1.0" encoding="UTF-8"?>
<svg version="1.1" xmlns="http://www.w3.org/2000/svg" width="698" height="210">
<path d="M0 0 C2.77781997 0.13826253 5.55621231 0.25504137 8.33496094 0.37304688 C12.55795597 0.55696291 16.7789166 0.77696355 21 1 C23.61425467 10.31904901 25.92389366 19.70037341 28.125 29.125 C28.37846191 30.1960498 28.63192383 31.26709961 28.89306641 32.37060547 C30.40060758 38.89134297 31.60504887 45.39933035 32.56591797 52.02294922 C33.00334765 55.02295906 33.49266088 58.01109872 34 61 C33.01 61 32.02 61 31 61 C30.7525 60.21625 30.505 59.4325 30.25 58.625 C28.76779118 55.51236148 27.96986543 55.46293371 25 54 C23.5 52.546875 23.5 52.546875 22 50.75 C21.40960938 50.05003906 20.81921875 49.35007813 20.2109375 48.62890625 C19.11652344 47.32759766 19.11652344 47.32759766 18 46 C16.97322197 44.81998673 15.94442352 43.64172973 14.9140625 42.46484375 C13.81757705 41.20584349 12.72122352 39.94672833 11.625 38.6875 C11.08875 38.07680664 10.5525 37.46611328 10 36.83691406 C7.76132538 34.24665273 6.09362706 32.28088118 5 29 C-0.61684902 31.7486708 -4.41839436 35.22177068 -8.75 39.70703125 C-11.35206194 42.35878534 -14.09447126 44.7754961 -16.91015625 47.1953125 C-21.0009628 50.72793423 -24.98870732 54.37768115 -29 58 C-35.97108589 64.2951018 -42.95033214 70.57219564 -50.1171875 76.64453125 C-57.09282381 82.56630867 -63.91237334 88.60606757 -70.55712891 94.89892578 C-74.80067727 98.90033864 -74.80067727 98.90033864 -77 100 C-77 100.66 -77 101.32 -77 102 C-76.16041748 102.32162109 -75.32083496 102.64324219 -74.45581055 102.97460938 C-71.23594432 104.20978345 -68.01719146 105.44778468 -64.79907227 106.6875 C-63.42578743 107.21591854 -62.05210985 107.74331791 -60.67797852 108.26953125 C-50.99816232 111.97745348 -41.4230517 115.8919066 -31.88012695 119.93847656 C-24.52107554 123.05600696 -17.12372524 126.08056438 -9.72802734 129.10986328 C-7.23617169 130.13066484 -4.74500351 131.15313053 -2.25390625 132.17578125 C-0.61202265 132.84906437 1.02990393 133.5222427 2.671875 134.1953125 C3.46605835 134.52122375 4.2602417 134.84713501 5.07849121 135.18292236 C8.80772747 136.70953568 12.54170626 138.21975202 16.29492188 139.68652344 C16.96759094 139.95052948 17.64026001 140.21453552 18.33331299 140.48654175 C20.12435954 141.18694453 21.91803004 141.88062736 23.71191406 142.57373047 C27.33536223 144.14546972 30.60580407 145.98533534 34 148 C33.11634531 155.43734106 31.86036544 162.7851297 30.52587891 170.15332031 C30.12740907 172.36164887 29.7374322 174.57137272 29.34765625 176.78125 C29.08906427 178.21624011 28.82996591 179.65113907 28.5703125 181.0859375 C28.34102051 182.3651709 28.11172852 183.6444043 27.87548828 184.96240234 C26.92595514 189.73803573 25.46067649 194.36002523 24 199 C6.85663206 200.28630499 -10.28321594 201.39812233 -27.45315552 202.26205444 C-33.56023458 202.56956132 -39.66682066 202.88659199 -45.7734375 203.203125 C-47.0202681 203.26759323 -48.26709869 203.33206146 -49.55171204 203.39848328 C-63.39110678 204.11769977 -77.2269382 204.89842121 -91.0625 205.6875 C-92.23166962 205.75411835 -93.40083923 205.82073669 -94.60543823 205.88937378 C-101.07038413 206.25798886 -107.5352362 206.62820535 -114 207 C-114 206.01 -114 205.02 -114 204 C-66.46756878 189.20326379 -66.46756878 189.20326379 -47.1796875 183.75390625 C-42.91440854 182.54811936 -38.65447537 181.3247789 -34.39660645 180.09315491 C-31.19303499 179.16671966 -27.9885675 178.24340419 -24.78405762 177.32022095 C-23.1834926 176.85831986 -21.58330979 176.39509221 -19.98352051 175.93051147 C-17.72703196 175.27552995 -15.4691606 174.62553434 -13.2109375 173.9765625 C-12.52750275 173.77687363 -11.84406799 173.57718475 -11.1399231 173.3714447 C-8.31669919 172.56451117 -5.95428939 172 -3 172 C-5.31312684 169.37652435 -7.43122764 168.20952457 -10.66796875 166.92578125 C-11.67907715 166.51730957 -12.69018555 166.10883789 -13.73193359 165.68798828 C-14.87227051 165.23407715 -16.01260742 164.78016602 -17.1875 164.3125 C-19.78940153 163.25773101 -22.38984885 162.19995884 -24.98828125 161.13671875 C-26.09441772 160.68443909 -26.09441772 160.68443909 -27.22290039 160.22302246 C-40.74906124 154.66475159 -54.15492514 148.8130863 -67.58480835 143.02676392 C-85.24921631 135.3892045 -85.24921631 135.3892045 -103.0925293 128.18457031 C-107.5255775 126.3784447 -111.77564312 124.24636389 -116 122 C-115.38167003 112.52762575 -114.41886412 103.14530268 -113.0625 93.75 C-112.91232422 92.45320313 -112.76214844 91.15640625 -112.60742188 89.8203125 C-111.35135759 81.4008236 -109.28199702 77.06683057 -102.51928711 71.7980957 C-101.68792236 71.20472412 -100.85655762 70.61135254 -100 70 C-98.49690664 68.81641789 -96.99637852 67.62956023 -95.5 66.4375 C-94.76007813 65.87289062 -94.02015625 65.30828125 -93.2578125 64.7265625 C-90.93769644 62.9523561 -88.65349545 61.13980823 -86.375 59.3125 C-85.54226562 58.64476562 -84.70953125 57.97703125 -83.8515625 57.2890625 C-82.91054687 56.53367188 -81.96953125 55.77828125 -81 55 C-78.58417687 53.06144582 -76.16746723 51.12400355 -73.75 49.1875 C-73.10836914 48.67340576 -72.46673828 48.15931152 -71.80566406 47.62963867 C-68.16169726 44.71455628 -64.50198134 41.821483 -60.82324219 38.95043945 C-54.97530025 34.3862536 -49.21423511 29.73067928 -43.5 25 C-37.64786081 20.15532604 -31.77090179 15.35060566 -25.75048828 10.71557617 C-23.26981216 8.80550603 -20.86689718 6.87837889 -18.5546875 4.765625 C-12.42267944 -0.72900588 -7.99482315 -0.66623526 0 0 Z " fill="#FDFEFD" transform="translate(116,1)"/>
<path d="M0 0 C1.39712274 1.95597184 2.71927629 3.9659094 4 6 C5.33616295 7.80572878 6.6840227 9.60105383 8.046875 11.38671875 C9 13 9 13 9 16 C9.66 16 10.32 16 11 16 C13 19 13 19 13 22 C13.66 22 14.32 22 15 22 C17 25 17 25 17 28 C17.66 28 18.32 28 19 28 C19 28.99 19 29.98 19 31 C19.66 31 20.32 31 21 31 C21.81567174 32.43570266 22.62742093 33.87363434 23.4375 35.3125 C24.11619141 36.51326172 24.11619141 36.51326172 24.80859375 37.73828125 C26 40 26 40 27 43 C27.66 43 28.32 43 29 43 C29.37511719 43.71285156 29.75023437 44.42570312 30.13671875 45.16015625 C33.11213883 50.72876361 36.12015755 56.01163114 40 61 C40.33 61 40.66 61 41 61 C41.33 40.87 41.66 20.74 42 0 C46.62 0 51.24 0 56 0 C56.02312255 11.3261163 56.04091464 22.65222703 56.05181217 33.97836208 C56.05704119 39.23696664 56.06413918 44.4955551 56.07543945 49.75415039 C56.08626766 54.82453127 56.09227669 59.89489662 56.09487724 64.96528816 C56.09673161 66.90426948 56.10035245 68.84324991 56.10573006 70.78222466 C56.1129396 73.4882176 56.11399098 76.19414556 56.11352539 78.90014648 C56.11712067 79.71006546 56.12071594 80.51998444 56.12442017 81.35444641 C56.11405216 86.88594784 56.11405216 86.88594784 55 88 C51.14510959 88.85358288 47.84485977 88.93101971 44 88 C40.22598193 84.86091893 37.67584137 81.08766625 35 77 C34.39542969 76.08992188 33.79085937 75.17984375 33.16796875 74.2421875 C32.00702612 72.44442984 30.86521412 70.63418373 29.7421875 68.8125 C27.90872213 65.85264559 25.99897846 62.95591528 24.0625 60.0625 C23.39089844 59.05832031 22.71929688 58.05414063 22.02734375 57.01953125 C20.70959374 55.05687084 19.38941377 53.09583898 18.06640625 51.13671875 C12.51270836 42.8788058 7.23887384 34.459493 2 26 C0.24650097 27.75349903 0.83869084 30.22273346 0.81054688 32.60546875 C0.79382935 33.80341064 0.77711182 35.00135254 0.7598877 36.2355957 C0.74631226 37.53972412 0.73273682 38.84385254 0.71875 40.1875 C0.70072206 41.52889772 0.68211954 42.87028783 0.66296387 44.21166992 C0.60318231 48.474384 0.55105826 52.73717367 0.5 57 C0.44085732 61.93779008 0.37863295 66.87549892 0.30812073 71.81314087 C0.28146039 73.79684572 0.2607626 75.78062777 0.2401123 77.7644043 C0.22339478 78.96234619 0.20667725 80.16028809 0.18945312 81.39453125 C0.17692505 82.45518799 0.16439697 83.51584473 0.15148926 84.60864258 C0 87 0 87 -1 88 C-4.96 88 -8.92 88 -13 88 C-13 58.96 -13 29.92 -13 0 C-3 -1 -3 -1 0 0 Z " fill="#FEFEFE" transform="translate(640,88)"/>
<path d="M0 0 C7.73512127 4.5871068 12.06457885 11.74826668 14.85546875 20.1328125 C15.9499376 25.10767093 15.81794157 30.00193007 15.5 35.0625 C1.16606646 36.18046696 -13.12892715 36.17022918 -27.5 36.0625 C-26.59173305 41.25386895 -25.10893614 46.04209132 -20.8203125 49.36328125 C-15.24842855 52.65141019 -10.9184142 53.48337962 -4.5 53.0625 C-2.1519741 52.40601935 0.11832541 51.62741883 2.41015625 50.796875 C4.74399038 49.97676132 7.05913374 49.45618811 9.5 49.0625 C10.82 51.3725 12.14 53.6825 13.5 56.0625 C5.29269922 62.52356657 -3.65040189 65.59272249 -14.16015625 64.8828125 C-22.37422029 63.7506349 -29.81859317 60.44371874 -35.375 54.125 C-42.33396862 44.09589817 -43.39587891 35.05581496 -42.5 23.0625 C-40.99285218 14.83035464 -38.20276384 9.17776714 -31.5 4.0625 C-31.17 3.4025 -30.84 2.7425 -30.5 2.0625 C-21.57373391 -3.37260424 -9.55922795 -4.19673422 0 0 Z M-23.5 11.0625 C-24.37822312 13.14783633 -24.37822312 13.14783633 -24.5 15.0625 C-25.16 15.0625 -25.82 15.0625 -26.5 15.0625 C-28.23734147 18.86293446 -28.5 20.65964577 -28.5 25.0625 C-18.6 25.0625 -8.7 25.0625 1.5 25.0625 C1.07526786 17.04721797 1.07526786 17.04721797 -2.5 11.0625 C-8.49349867 6.82319606 -17.7684233 5.88559201 -23.5 11.0625 Z " fill="#FDFDFD" transform="translate(214.5,112.9375)"/>
<path d="M0 0 C4.29 0 8.58 0 13 0 C16.42207726 8.21298542 19.33848527 16.57702874 22.25 24.98046875 C23.33067127 28.09628574 24.42960638 31.20357271 25.5625 34.30078125 C25.79654541 34.94241211 26.03059082 35.58404297 26.27172852 36.24511719 C26.89525842 37.9471915 27.52362638 39.64749127 28.15234375 41.34765625 C29 44 29 44 29 47 C29.66 47 30.32 47 31 47 C31.13535156 46.41476563 31.27070313 45.82953125 31.41015625 45.2265625 C33.15401403 38.27201591 35.58142579 31.72370605 38.22729492 25.0769043 C40.70000541 18.84650919 42.96488544 12.56035024 45.1340332 6.21826172 C46.89953016 1.10046984 46.89953016 1.10046984 48 0 C50.18639453 -0.07258946 52.37500389 -0.08373783 54.5625 -0.0625 C56.35880859 -0.04896484 56.35880859 -0.04896484 58.19140625 -0.03515625 C59.11824219 -0.02355469 60.04507813 -0.01195313 61 0 C60.02938736 6.67839441 58.14289818 12.21479912 55.22265625 18.28515625 C54.07956215 20.82333643 53.24942151 23.2609946 52.5 25.9375 C50.84360151 31.84251384 48.41146969 37.37074877 46 43 C43.94087516 47.9040641 42.02144011 52.75648386 40.5625 57.875 C37.18045433 69.54673369 32.5208091 82.84266818 21.625 89.4375 C13.75286375 91.12438634 7.711026 87.72681977 1 84 C1.75 81.0625 1.75 81.0625 3 78 C6.02724359 76.76277871 8.34536772 77.09870733 11.5 77.6875 C15.07017102 78.14341878 15.07017102 78.14341878 18.3125 76.6875 C22.12401621 70.71361462 22.12401621 70.71361462 24 64 C23.16724799 62.17741357 22.30698106 60.36392845 21.33642578 58.61083984 C19.6489162 55.3141231 18.32748282 51.9057111 17.01171875 48.44921875 C16.74543167 47.75215317 16.47914459 47.05508759 16.20478821 46.3368988 C15.36198643 44.12181867 14.52442857 41.90480521 13.6875 39.6875 C13.10737647 38.15804635 12.52705332 36.6286684 11.9465332 35.09936523 C10.54203206 31.39518884 9.14337439 27.68884038 7.74707031 23.98156738 C7.07155497 22.18979605 6.39335785 20.39903634 5.71484375 18.60839844 C4.69985721 15.92858641 3.69156239 13.24642035 2.6875 10.5625 C2.26247192 9.43944458 2.26247192 9.43944458 1.82885742 8.29370117 C0.75036802 5.37853489 0 3.13649544 0 0 Z " fill="#FDFDFD" transform="translate(447,112)"/>
<path d="M0 0 C5.25647946 4.28502883 7.65497681 8.61644065 8.54296875 15.2578125 C9.57145449 25.79427721 9.54454895 36.13361977 9.10546875 46.6953125 C9.05202533 48.12041629 8.99928815 49.54554675 8.94726562 50.97070312 C8.82058901 54.40008372 8.68453805 57.82901043 8.54296875 61.2578125 C5.3007532 62.33855102 2.93893938 62.47457658 -0.45703125 62.2578125 C-1.11703125 61.5978125 -1.77703125 60.9378125 -2.45703125 60.2578125 C-2.45703125 59.2678125 -2.45703125 58.2778125 -2.45703125 57.2578125 C-3.14925781 57.6909375 -3.84148437 58.1240625 -4.5546875 58.5703125 C-12.91428168 63.32834239 -19.91359717 64.41492633 -29.45703125 63.2578125 C-32.15379709 62.51431164 -34.03181067 61.67745381 -36.45703125 60.2578125 C-36.45703125 59.5978125 -36.45703125 58.9378125 -36.45703125 58.2578125 C-37.44703125 57.9278125 -38.43703125 57.5978125 -39.45703125 57.2578125 C-42.63754018 52.93232036 -44.67968795 48.24235977 -44.2734375 42.796875 C-43.24975395 36.76348349 -41.68182393 31.92608068 -36.8046875 27.890625 C-27.92943109 21.75598969 -17.04232093 20.32017061 -6.45703125 20.2578125 C-5.79703125 20.5878125 -5.13703125 20.9178125 -4.45703125 21.2578125 C-5.40637024 17.90348141 -6.3545196 14.56534745 -7.45703125 11.2578125 C-14.11419458 7.6629443 -19.36474735 7.54067519 -26.64453125 9.6328125 C-29.7484024 10.60063374 -32.58230652 11.7378431 -35.45703125 13.2578125 C-37.43703125 9.7928125 -37.43703125 9.7928125 -39.45703125 6.2578125 C-28.45547054 -1.61135939 -12.93887156 -8.16891229 0 0 Z M-23.45703125 32.2578125 C-24.19953125 32.5053125 -24.94203125 32.7528125 -25.70703125 33.0078125 C-28.51301254 35.01208485 -29.32119137 37.029636 -30.45703125 40.2578125 C-30.75018958 44.61330769 -30.22789107 47.37359094 -27.33203125 50.6953125 C-23.31331217 52.87939896 -19.96785802 53.79823807 -15.40625 52.81640625 C-10.66018996 51.25226217 -7.62413516 49.25064505 -4.45703125 45.2578125 C-4.0893188 42.4190724 -3.97072321 40.23961099 -4.14453125 37.4453125 C-4.16708984 36.75244141 -4.18964844 36.05957031 -4.21289062 35.34570312 C-4.27140464 33.64879677 -4.36107645 31.95301389 -4.45703125 30.2578125 C-11.15582175 30.05981869 -17.13528334 29.88715703 -23.45703125 32.2578125 Z " fill="#FDFDFD" transform="translate(374.45703125,113.7421875)"/>
<path d="M0 0 C22.44 0 44.88 0 68 0 C68 3.63 68 7.26 68 11 C67 12 67 12 65.03808594 12.09765625 C64.19536133 12.08605469 63.35263672 12.07445313 62.484375 12.0625 C61.56269531 12.05476563 60.64101563 12.04703125 59.69140625 12.0390625 C57.74609098 12.0132283 55.80077842 11.98718999 53.85546875 11.9609375 C52.46521484 11.94933594 52.46521484 11.94933594 51.046875 11.9375 C50.19963867 11.92589844 49.35240234 11.91429688 48.47949219 11.90234375 C45.89114208 12.00428743 43.53052793 12.46703542 41 13 C40.98969254 13.92485703 40.97938507 14.84971405 40.96876526 15.80259705 C40.87096818 24.49959224 40.76847962 33.19651656 40.66066074 41.89339352 C40.60539123 46.36501994 40.55196493 50.83665285 40.50268555 55.30834961 C40.45510123 59.62017766 40.40276084 63.93192368 40.34705925 68.24365425 C40.32660872 69.89233939 40.30790019 71.54104706 40.29092598 73.18977165 C40.26694141 75.4910996 40.23687923 77.7922711 40.20532227 80.09350586 C40.18977798 81.4058873 40.1742337 82.71826874 40.15821838 84.07041931 C40 87 40 87 39 88 C37.00200428 88.09873816 35.00042842 88.12971799 33 88.125 C31.906875 88.12757813 30.81375 88.13015625 29.6875 88.1328125 C27 88 27 88 26 87 C25.90507278 84.65746218 25.87440209 82.34453896 25.88647461 80.00170898 C25.88632858 79.27004517 25.88618256 78.53838135 25.8860321 77.7845459 C25.88673133 75.35503216 25.89452415 72.92559417 25.90234375 70.49609375 C25.9042079 68.81600486 25.90563181 67.13591543 25.90663147 65.45582581 C25.91045693 61.02526357 25.92028744 56.5947339 25.93133545 52.16418457 C25.94154897 47.64657024 25.94612896 43.12895066 25.95117188 38.61132812 C25.96190969 29.74087107 25.97898644 20.87043824 26 12 C25.28344238 12.00523682 24.56688477 12.01047363 23.82861328 12.01586914 C20.59408438 12.03660667 17.35956944 12.04964984 14.125 12.0625 C12.43310547 12.07506836 12.43310547 12.07506836 10.70703125 12.08789062 C9.63066406 12.09111328 8.55429687 12.09433594 7.4453125 12.09765625 C6.45031738 12.10289307 5.45532227 12.10812988 4.43017578 12.11352539 C2 12 2 12 0 11 C0 7.37 0 3.74 0 0 Z " fill="#FEFEFE" transform="translate(544,88)"/>
<path d="M0 0 C0.495 8.415 0.495 8.415 1 17 C6.61 17.33 12.22 17.66 18 18 C19.73360665 21.46721329 18.48361845 25.23852315 18 29 C12.06 29 6.12 29 0 29 C0.0739409 34.64245532 0.15671378 40.28330741 0.26245117 45.92504883 C0.2957225 47.84456098 0.32374754 49.76417148 0.34643555 51.68383789 C0.37994121 54.44199572 0.43225403 57.19925043 0.48828125 59.95703125 C0.49467117 60.81649857 0.5010611 61.67596588 0.50764465 62.56147766 C0.53733589 63.76238289 0.53733589 63.76238289 0.56762695 64.98754883 C0.57873001 65.6914827 0.58983307 66.39541656 0.60127258 67.12068176 C1.12932729 69.60955713 1.94398331 70.52461216 4 72 C8.13436619 71.73750056 12.01846073 71.16128229 16 70 C20 75.75 20 75.75 20 78 C13.91996931 81.97992347 8.40071892 84.59159352 1 84 C-4.71243971 82.4689229 -8.83771399 80.13871476 -12 75 C-12.91861784 72.24414648 -13.12204322 70.6403931 -13.11352539 67.80395508 C-13.11344986 66.96331009 -13.11337433 66.1226651 -13.11329651 65.25654602 C-13.10813522 64.35333115 -13.10297394 63.45011627 -13.09765625 62.51953125 C-13.0962413 61.59154221 -13.09482635 60.66355316 -13.09336853 59.70744324 C-13.08776937 56.74242942 -13.07521704 53.77749101 -13.0625 50.8125 C-13.05748489 48.80273547 -13.052922 46.79296975 -13.04882812 44.78320312 C-13.03780021 39.85543968 -13.02053617 34.92773263 -13 30 C-15.97 29.67 -18.94 29.34 -22 29 C-22 25.37 -22 21.74 -22 18 C-19.03 18 -16.06 18 -13 18 C-13.185625 16.783125 -13.37125 15.56625 -13.5625 14.3125 C-14.07451837 10.95593513 -14.11991057 8.2388024 -13 5 C-10.8203125 3.41796875 -10.8203125 3.41796875 -8.125 2.1875 C-6.79855469 1.55908203 -6.79855469 1.55908203 -5.4453125 0.91796875 C-3 0 -3 0 0 0 Z " fill="#FEFEFE" transform="translate(420,94)"/>
<path d="M0 0 C3.73562467 2.19102212 5.71515199 3.99205144 7.45703125 8.0078125 C6.05150826 9.04393521 4.63211431 10.06126175 3.20703125 11.0703125 C2.418125 11.63878906 1.62921875 12.20726563 0.81640625 12.79296875 C-1.54296875 14.0078125 -1.54296875 14.0078125 -3.6640625 13.76171875 C-4.28410156 13.51292969 -4.90414063 13.26414062 -5.54296875 13.0078125 C-10.34015159 11.08893937 -13.48247368 10.78954517 -18.54296875 12.0078125 C-20.78251716 13.18312419 -20.78251716 13.18312419 -22.54296875 15.0078125 C-23.15018342 17.22595271 -23.15018342 17.22595271 -23.07299805 19.73876953 C-23.08948898 20.69631134 -23.10597992 21.65385315 -23.12297058 22.64041138 C-23.12106216 23.67173187 -23.11915375 24.70305237 -23.1171875 25.765625 C-23.13135208 26.82441864 -23.14551666 27.88321228 -23.16011047 28.97409058 C-23.20210542 32.36043422 -23.21727184 35.74624473 -23.23046875 39.1328125 C-23.25947064 42.52627362 -23.29395268 45.91959741 -23.33296204 49.31295776 C-23.35554614 51.42627775 -23.37130628 53.53968312 -23.37980652 55.65310669 C-23.38684097 56.60434418 -23.39387543 57.55558167 -23.40112305 58.53564453 C-23.40634224 59.79781296 -23.40634224 59.79781296 -23.41166687 61.08547974 C-23.54296875 63.0078125 -23.54296875 63.0078125 -24.54296875 64.0078125 C-26.37412758 64.10632421 -28.20916808 64.13753879 -30.04296875 64.1328125 C-31.04328125 64.13539063 -32.04359375 64.13796875 -33.07421875 64.140625 C-35.54296875 64.0078125 -35.54296875 64.0078125 -36.54296875 63.0078125 C-36.63697545 61.04412097 -36.66040256 59.07702051 -36.65649414 57.11108398 C-36.65641861 55.84985214 -36.65634308 54.5886203 -36.65626526 53.28916931 C-36.65115785 51.90241456 -36.64594184 50.51566021 -36.640625 49.12890625 C-36.63876076 47.71786041 -36.63733689 46.30681393 -36.63633728 44.89576721 C-36.63251254 41.17540715 -36.62268265 37.4550859 -36.6116333 33.73474121 C-36.60141823 29.94100469 -36.59683946 26.14726192 -36.59179688 22.35351562 C-36.58106033 14.90493019 -36.56398445 7.45637678 -36.54296875 0.0078125 C-32.91296875 0.0078125 -29.28296875 0.0078125 -25.54296875 0.0078125 C-24.88296875 1.3278125 -24.22296875 2.6478125 -23.54296875 4.0078125 C-23.11628906 3.646875 -22.68960937 3.2859375 -22.25 2.9140625 C-15.63921072 -1.99291511 -7.76266646 -3.02875158 0 0 Z " fill="#FEFEFE" transform="translate(282.54296875,111.9921875)"/>
<path d="M0 0 C2.31 0 4.62 0 7 0 C9.61425467 9.31904901 11.92389366 18.70037341 14.125 28.125 C14.50519287 29.73157471 14.50519287 29.73157471 14.89306641 31.37060547 C16.40060758 37.89134297 17.60504887 44.39933035 18.56591797 51.02294922 C19.00334765 54.02295906 19.49266088 57.01109872 20 60 C19.01 60 18.02 60 17 60 C16.7525 59.21625 16.505 58.4325 16.25 57.625 C14.76779118 54.51236148 13.96986543 54.46293371 11 53 C9.5 51.546875 9.5 51.546875 8 49.75 C7.40960938 49.05003906 6.81921875 48.35007813 6.2109375 47.62890625 C5.48132813 46.76136719 4.75171875 45.89382812 4 45 C2.97322197 43.81998673 1.94442352 42.64172973 0.9140625 41.46484375 C-0.18242295 40.20584349 -1.27877648 38.94672833 -2.375 37.6875 C-2.91125 37.07680664 -3.4475 36.46611328 -4 35.83691406 C-6.23867462 33.24665273 -7.90637294 31.28088118 -9 28 C-14.61684902 30.7486708 -18.41839436 34.22177068 -22.75 38.70703125 C-25.35206194 41.35878534 -28.09447126 43.7754961 -30.91015625 46.1953125 C-35.0009628 49.72793423 -38.98870732 53.37768115 -43 57 C-49.97108589 63.2951018 -56.95033214 69.57219564 -64.1171875 75.64453125 C-71.09282381 81.56630867 -77.91237334 87.60606757 -84.55712891 93.89892578 C-88.80067727 97.90033864 -88.80067727 97.90033864 -91 99 C-91 99.66 -91 100.32 -91 101 C-90.16041748 101.32162109 -89.32083496 101.64324219 -88.45581055 101.97460938 C-85.23594432 103.20978345 -82.01719146 104.44778468 -78.79907227 105.6875 C-77.42578743 106.21591854 -76.05210985 106.74331791 -74.67797852 107.26953125 C-64.99816232 110.97745348 -55.4230517 114.8919066 -45.88012695 118.93847656 C-38.52107554 122.05600696 -31.12372524 125.08056438 -23.72802734 128.10986328 C-21.23617169 129.13066484 -18.74500351 130.15313053 -16.25390625 131.17578125 C-14.61202265 131.84906437 -12.97009607 132.5222427 -11.328125 133.1953125 C-10.53394165 133.52122375 -9.7397583 133.84713501 -8.92150879 134.18292236 C-5.19227253 135.70953568 -1.45829374 137.21975202 2.29492188 138.68652344 C3.30392548 139.0825325 3.30392548 139.0825325 4.33331299 139.48654175 C6.12435954 140.18694453 7.91803004 140.88062736 9.71191406 141.57373047 C13.33536223 143.14546972 16.60580407 144.98533534 20 147 C19.11634531 154.43734106 17.86036544 161.7851297 16.52587891 169.15332031 C16.12740907 171.36164887 15.7374322 173.57137272 15.34765625 175.78125 C15.08906427 177.21624011 14.82996591 178.65113907 14.5703125 180.0859375 C14.34102051 181.3651709 14.11172852 182.6444043 13.87548828 183.96240234 C12.92595514 188.73803573 11.46067649 193.36002523 10 198 C-7.92710136 199.34575578 -25.8525448 200.50089304 -43.80615234 201.43261719 C-47.55460327 201.62784385 -51.30268399 201.82935845 -55.05078125 202.03125 C-57.48175127 202.1592263 -59.9127402 202.28684405 -62.34375 202.4140625 C-63.44078247 202.47340973 -64.53781494 202.53275696 -65.66809082 202.59390259 C-72.7849958 202.95728444 -79.87426984 203.06733115 -87 203 C-83.97972136 200.98648091 -83.01387932 200.69742762 -79.56298828 200.41992188 C-78.6721051 200.34636475 -77.78122192 200.27280762 -76.86334229 200.19702148 C-71.90781192 199.85604026 -66.95217725 199.55011076 -61.9921875 199.28125 C-60.30574631 199.18704773 -60.30574631 199.18704773 -58.5852356 199.09094238 C-55.01526811 198.89189782 -51.44514587 198.69581651 -47.875 198.5 C-44.335195 198.30409661 -40.7954259 198.10756102 -37.25567627 197.91065979 C-34.96952799 197.78352688 -32.68335472 197.6568426 -30.39715576 197.53062439 C-23.04031577 197.12223984 -15.68744134 196.67437844 -8.33642578 196.17211914 C-2.55821137 195.8740333 3.2152949 195.91865258 9 196 C9.10812012 195.2479126 9.21624023 194.4958252 9.32763672 193.72094727 C10.76506684 184.02748939 12.62378198 174.43750172 14.54638672 164.83227539 C14.95337975 162.79374847 15.35580726 160.75435918 15.7578125 158.71484375 C15.9964502 157.51980225 16.23508789 156.32476074 16.48095703 155.09350586 C17.11031448 151.86531487 17.11031448 151.86531487 17 148 C16.02160156 147.61328125 15.04320312 147.2265625 14.03515625 146.828125 C12.71089948 146.30217905 11.38668291 145.77613189 10.0625 145.25 C9.42248047 144.99734375 8.78246094 144.7446875 8.12304688 144.484375 C4.62495914 143.09210127 1.16692813 141.64096859 -2.265625 140.09375 C-7.71681897 137.65025216 -13.26061331 135.45283564 -18.8125 133.25 C-21.02865464 132.36720961 -23.24480035 131.4843968 -25.4609375 130.6015625 C-26.55889648 130.16489258 -27.65685547 129.72822266 -28.78808594 129.27832031 C-33.50708504 127.40019024 -38.22232501 125.51270516 -42.9375 123.625 C-44.46742591 123.01296582 -45.99737292 122.40098439 -47.52734375 121.7890625 C-48.2536499 121.49797607 -48.97995605 121.20688965 -49.72827148 120.90698242 C-51.33561798 120.26525301 -52.9446808 119.62781472 -54.55493164 118.9934082 C-59.30239092 117.11625701 -63.95571498 115.14381467 -68.5625 112.9375 C-72.98658916 110.86841952 -77.3456387 109.10147508 -82.00390625 107.6484375 C-86.50648328 106.18576081 -90.80319446 104.18233888 -95 102 C-94.61402985 99.20171644 -94.19863427 98.1794116 -92.0625 96.25 C-90 95 -90 95 -88 95 C-87.34 93.68 -86.68 92.36 -86 91 C-85.34 91 -84.68 91 -84 91 C-83.67 90.01 -83.34 89.02 -83 88 C-81.00390625 86.28125 -81.00390625 86.28125 -78.5625 84.5 C-75.6756702 82.3870074 -74.01015789 81.01523684 -72 78 C-71.01 78 -70.02 78 -69 78 C-69 77.34 -69 76.68 -69 76 C-67.28515625 74.34375 -67.28515625 74.34375 -65.0625 72.5 C-62.07954821 70.11073001 -62.07954821 70.11073001 -60 67 C-59.01 66.67 -58.02 66.34 -57 66 C-56.154375 65.154375 -55.30875 64.30875 -54.4375 63.4375 C-53.633125 62.633125 -52.82875 61.82875 -52 61 C-51.34 61 -50.68 61 -50 61 C-50 60.34 -50 59.68 -50 59 C-48.20703125 57.44921875 -48.20703125 57.44921875 -45.8125 55.6875 C-42.21549375 53.0329929 -39.13528236 50.18607486 -36 47 C-31.64861454 42.84118212 -27.22226127 38.76061491 -22.8046875 34.67236328 C-21.24026243 33.22264578 -19.68205844 31.76622047 -18.125 30.30859375 C-17.34125 29.58800781 -16.5575 28.86742188 -15.75 28.125 C-15.08484375 27.50882813 -14.4196875 26.89265625 -13.734375 26.2578125 C-12 25 -12 25 -9 25 C-7.0546875 27.0546875 -7.0546875 27.0546875 -4.875 29.875 C-1.12134502 34.62191109 2.77469113 39.15508691 6.84765625 43.62890625 C9.94721267 47.04348111 12.97577785 50.51874107 16 54 C15.27916892 46.22884854 13.38845606 38.76090984 11.5625 31.1875 C6 8.04418933 6 8.04418933 6 2 C4.02 2 2.04 2 0 2 C0 1.34 0 0.68 0 0 Z " fill="#E0E5ED" transform="translate(130,2)"/>
<path d="M0 0 C1.97909398 -0.02686553 3.95828971 -0.04633375 5.9375 -0.0625 C7.03964844 -0.07410156 8.14179688 -0.08570312 9.27734375 -0.09765625 C12 0 12 0 13 1 C13.09920863 2.92761817 13.12799365 4.85889354 13.12939453 6.7890625 C13.13254669 8.0270459 13.13569885 9.2650293 13.13894653 10.54052734 C13.13715675 11.90201859 13.1351058 13.26350951 13.1328125 14.625 C13.13348559 16.01123064 13.13445566 17.39746117 13.13571167 18.78369141 C13.1371884 21.69239422 13.1350349 24.60106637 13.13037109 27.50976562 C13.12467381 31.24596598 13.12795294 34.98209452 13.13394356 38.71829224 C13.13754985 41.58179266 13.13641027 44.44527593 13.13381577 47.30877686 C13.13314668 48.68674732 13.13397426 50.06471932 13.13629532 51.44268799 C13.13882292 53.36543754 13.13429024 55.28819252 13.12939453 57.2109375 C13.12859894 58.30712402 13.12780334 59.40331055 13.12698364 60.53271484 C13 63 13 63 12 64 C10.16884117 64.09851171 8.33380067 64.12972629 6.5 64.125 C5.4996875 64.12757813 4.499375 64.13015625 3.46875 64.1328125 C1 64 1 64 0 63 C-0.0940067 61.03630847 -0.11743381 59.06920801 -0.11352539 57.10327148 C-0.11344986 55.84203964 -0.11337433 54.5808078 -0.11329651 53.28135681 C-0.1081891 51.89460206 -0.10297309 50.50784771 -0.09765625 49.12109375 C-0.09579201 47.71004791 -0.09436814 46.29900143 -0.09336853 44.88795471 C-0.08954379 41.16759465 -0.0797139 37.4472734 -0.06866455 33.72692871 C-0.05844948 29.93319219 -0.05387071 26.13944942 -0.04882812 22.34570312 C-0.03809158 14.89711769 -0.0210157 7.44856428 0 0 Z " fill="#FEFEFE" transform="translate(302,112)"/>
<path d="M0 0 C0.66 0 1.32 0 2 0 C0.97496684 10.23265864 -0.97612607 20.25157895 -3.0625 30.3125 C-3.26604095 31.30024918 -3.26604095 31.30024918 -3.47369385 32.30795288 C-5.81412411 43.62824822 -5.81412411 43.62824822 -7 46 C-9.21569824 46.38485718 -9.21569824 46.38485718 -12.18554688 46.57568359 C-13.84753113 46.68887436 -13.84753113 46.68887436 -15.54309082 46.80435181 C-16.75605835 46.87665009 -17.96902588 46.94894836 -19.21875 47.0234375 C-20.47328979 47.10516205 -21.72782959 47.1868866 -23.02038574 47.27108765 C-27.01294294 47.52653812 -31.00612768 47.76630554 -35 48 C-36.24539551 48.07367798 -37.49079102 48.14735596 -38.77392578 48.2232666 C-46.11669701 48.6523169 -53.46075061 49.05141869 -60.80615234 49.43261719 C-64.55460327 49.62784385 -68.30268399 49.82935845 -72.05078125 50.03125 C-74.48175127 50.1592263 -76.9127402 50.28684405 -79.34375 50.4140625 C-80.44078247 50.47340973 -81.53781494 50.53275696 -82.66809082 50.59390259 C-89.7849958 50.95728444 -96.87426984 51.06733115 -104 51 C-100.97972136 48.98648091 -100.01387932 48.69742762 -96.56298828 48.41992188 C-95.6721051 48.34636475 -94.78122192 48.27280762 -93.86334229 48.19702148 C-88.90781192 47.85604026 -83.95217725 47.55011076 -78.9921875 47.28125 C-77.86789337 47.21844849 -76.74359924 47.15564697 -75.5852356 47.09094238 C-72.01526811 46.89189782 -68.44514587 46.69581651 -64.875 46.5 C-61.335195 46.30409661 -57.7954259 46.10756102 -54.25567627 45.91065979 C-51.96952799 45.78352688 -49.68335472 45.6568426 -47.39715576 45.53062439 C-40.04031577 45.12223984 -32.68744134 44.67437844 -25.33642578 44.17211914 C-19.55821137 43.8740333 -13.7847051 43.91865258 -8 44 C-7.89187988 43.25081299 -7.78375977 42.50162598 -7.67236328 41.72973633 C-6.32463739 32.66052049 -4.64446339 23.6810449 -2.875 14.6875 C-2.59481586 13.25330134 -2.31486668 11.81905675 -2.03515625 10.38476562 C-1.35946744 6.92264565 -0.6806406 3.46115032 0 0 Z " fill="#D5DCE9" transform="translate(147,154)"/>
<path d="M0 0 C0 0.66 0 1.32 0 2 C-1.093125 2.309375 -2.18625 2.61875 -3.3125 2.9375 C-5.55407994 3.58337897 -7.7869351 4.2623117 -10 5 C-10 5.66 -10 6.32 -10 7 C-11.35192763 7.90128509 -12.70842345 8.79617729 -14.08203125 9.6640625 C-18.75813869 12.92114752 -23.03887065 16.93729821 -26.9609375 21.0625 C-29.1561919 23.14841223 -31.38977541 24.47703588 -34 26 C-35.62539215 27.24357083 -37.22924145 28.5157115 -38.8125 29.8125 C-42.57691784 32.86898254 -46.38976552 35.82051809 -50.30859375 38.67578125 C-52.01396854 40.01093611 -53.48695366 41.45333041 -55 43 C-58.66666667 46 -58.66666667 46 -61 46 C-61.33 46.99 -61.66 47.98 -62 49 C-64.5625 50.1875 -64.5625 50.1875 -67 51 C-67 51.66 -67 52.32 -67 53 C-68.92587579 54.63139937 -70.84326717 56.13723225 -72.875 57.625 C-73.43058594 58.04523437 -73.98617187 58.46546875 -74.55859375 58.8984375 C-78.73764712 62 -78.73764712 62 -81 62 C-81 62.66 -81 63.32 -81 64 C-87.1770842 69.67623953 -94.35500851 75.50053207 -102 79 C-100.45347956 74.66367799 -97.10909502 72.47256365 -93.5625 69.8125 C-92.28053583 68.82905525 -90.99929299 67.84466955 -89.71875 66.859375 C-89.08453125 66.37404297 -88.4503125 65.88871094 -87.796875 65.38867188 C-85.34553589 63.49421306 -82.95180888 61.53439949 -80.5625 59.5625 C-72.07416032 52.58015607 -63.48915347 45.71607549 -54.82543945 38.95263672 C-48.97749142 34.38678727 -43.21504073 29.73134623 -37.5 25 C-31.10666149 19.70729598 -24.65504826 14.50496264 -18.09375 9.421875 C-16.15174329 7.90161722 -14.2311043 6.35322303 -12.34375 4.765625 C-5.45094937 -0.97837553 -5.45094937 -0.97837553 0 0 Z " fill="#D4D9E3" transform="translate(110,1)"/>
<path d="M0 0 C4.83883561 0.54475948 8.89107746 1.54786886 13.3828125 3.4140625 C13.98278549 3.66050003 14.58275848 3.90693756 15.20091248 4.1608429 C17.1786839 4.97499313 19.15170461 5.80006749 21.125 6.625 C22.52559554 7.20343931 23.92656444 7.78097529 25.32788086 8.35766602 C28.31503928 9.58752449 31.30072361 10.82087412 34.28564453 12.05615234 C41.56573393 15.06372015 48.86897133 18.01437334 56.17059326 20.96917725 C58.49650942 21.91078484 60.8218393 22.85382455 63.14697266 23.79736328 C64.62011128 24.39487135 66.0932557 24.99236509 67.56640625 25.58984375 C68.27691635 25.87824127 68.98742645 26.16663879 69.71946716 26.46377563 C73.18815749 27.86960143 76.66053917 29.2646164 80.14233398 30.63769531 C86.53657571 33.16166638 92.82391013 35.72366502 98.9375 38.875 C100.10152344 39.47054687 101.26554687 40.06609375 102.46484375 40.6796875 C103.30144531 41.11539063 104.13804687 41.55109375 105 42 C104.67 43.65 104.34 45.3 104 47 C103.81566406 46.401875 103.63132812 45.80375 103.44140625 45.1875 C101.34132216 42.00038052 98.39458951 41.23249812 94.9375 40 C93.65419385 39.52285655 92.37164864 39.04366188 91.08984375 38.5625 C90.09029663 38.1897998 90.09029663 38.1897998 89.07055664 37.80957031 C86.92840416 36.97200663 84.83843784 36.05571869 82.7421875 35.109375 C77.29105302 32.65324772 71.7441021 30.45470658 66.1875 28.25 C63.97134536 27.36720961 61.75519965 26.4843968 59.5390625 25.6015625 C58.44110352 25.16489258 57.34314453 24.72822266 56.21191406 24.27832031 C51.49291496 22.40019024 46.77767499 20.51270516 42.0625 18.625 C40.53257409 18.01296582 39.00262708 17.40098439 37.47265625 16.7890625 C36.7463501 16.49797607 36.02004395 16.20688965 35.27172852 15.90698242 C33.66438202 15.26525301 32.0553192 14.62781472 30.44506836 13.9934082 C25.69760908 12.11625701 21.04428502 10.14381467 16.4375 7.9375 C12.5848241 6.12742623 8.81207101 4.52222256 4.75 3.25 C3.5125 2.8375 2.275 2.425 1 2 C0.67 1.34 0.34 0.68 0 0 Z " fill="#CFD8E7" transform="translate(45,107)"/>
<path d="M0 0 C-2.86266484 2.37314463 -5.22057244 3.55498725 -8.81640625 4.46484375 C-9.74018066 4.70549561 -10.66395508 4.94614746 -11.61572266 5.1940918 C-12.58815918 5.4394165 -13.5605957 5.68474121 -14.5625 5.9375 C-21.3854636 7.72026011 -28.02052597 9.60388403 -34.60546875 12.14453125 C-38.14523089 13.40914448 -41.76858336 14.21565075 -45.421875 15.0859375 C-50.0489333 16.26795894 -54.61476407 17.62451969 -59.1875 19 C-60.01886475 19.24927246 -60.85022949 19.49854492 -61.70678711 19.75537109 C-65.7308297 20.97284256 -69.7304332 22.2364974 -73.7109375 23.58984375 C-78.2442096 25.11735394 -82.83243024 26.19966814 -87.49609375 27.25390625 C-90.14386536 27.8267066 -90.14386536 27.8267066 -92 30 C-94.125 29.625 -94.125 29.625 -96 29 C-93.42242667 25.8342141 -90.79162087 25.10728505 -86.921875 24.01171875 C-86.29873917 23.83191971 -85.67560333 23.65212067 -85.03358459 23.46687317 C-83.66526974 23.07323236 -82.29565705 22.68408227 -80.92495728 22.29882812 C-77.936123 21.45873877 -74.95350278 20.59750598 -71.97029114 19.73770142 C-70.33632288 19.26700757 -68.70202458 18.7974582 -67.06742859 18.32894897 C-55.95670111 15.13986866 -44.88741369 11.81080165 -33.8125 8.5 C-30.75018004 7.58550837 -27.68772852 6.67146094 -24.62510681 5.75798035 C-22.78005319 5.20765761 -20.93512444 4.65691594 -19.09034729 4.10566711 C-16.72779253 3.40072337 -14.36399527 2.70009408 -12 2 C-11.32117767 1.79544189 -10.64235535 1.59088379 -9.94296265 1.38012695 C-6.50597669 0.36196018 -3.59666162 -0.21797949 0 0 Z " fill="#CDD3E1" transform="translate(97,178)"/>
<path d="M0 0 C2 1.625 2 1.625 3 4 C2.87988224 7.42335626 2.60726153 9.95416069 0.875 12.9375 C-2.18452459 14.6712306 -4.56817525 14.42145216 -8 14 C-10.4375 12.4375 -10.4375 12.4375 -12 10 C-12.5625 6.5 -12.5625 6.5 -12 3 C-8.33340589 -1.4443565 -5.38867153 -1.59664341 0 0 Z " fill="#FDFDFD" transform="translate(313,87)"/>
<path d="M0 0 C0.33 0 0.66 0 1 0 C0.48707462 7.87075152 -0.66729689 15.59148531 -1.98364258 23.3605957 C-2.63486108 27.28439833 -3.18600351 31.00496806 -3 35 C-1.35 35.33 0.3 35.66 2 36 C2 36.66 2 37.32 2 38 C2.60585937 38.17015625 3.21171875 38.3403125 3.8359375 38.515625 C13.65641172 41.35600831 22.7754766 45.28664308 32.01953125 49.6328125 C34.65366198 50.84112935 37.29900379 51.95155415 40 53 C40 53.66 40 54.32 40 55 C32.3643417 52.57158359 24.97775456 49.65497702 17.5625 46.625 C16.39912109 46.15578125 15.23574219 45.6865625 14.03710938 45.203125 C7.19786729 42.41662457 0.54290346 39.42692389 -6 36 C-5.57181687 28.41439777 -4.79032187 20.99545091 -3.5625 13.5 C-3.44028076 12.73510254 -3.31806152 11.97020508 -3.19213867 11.18212891 C-2.51975232 7.22120969 -1.68715593 3.68106748 0 0 Z " fill="#E2E8F1" transform="translate(6,87)"/>
<path d="M0 0 C2.31 0 4.62 0 7 0 C9.61425467 9.31904901 11.92389366 18.70037341 14.125 28.125 C14.37846191 29.1960498 14.63192383 30.26709961 14.89306641 31.37060547 C16.40060758 37.89134297 17.60504887 44.39933035 18.56591797 51.02294922 C19.00334765 54.02295906 19.49266088 57.01109872 20 60 C19.01 60 18.02 60 17 60 C16.01 58.02 15.02 56.04 14 54 C14.66 54 15.32 54 16 54 C15.27916892 46.22884854 13.38845606 38.76090984 11.5625 31.1875 C6 8.04418933 6 8.04418933 6 2 C4.02 2 2.04 2 0 2 C0 1.34 0 0.68 0 0 Z " fill="#D5DAE6" transform="translate(130,2)"/>
<path d="M0 0 C0.66 0.33 1.32 0.66 2 1 C0.48947977 4.67670584 -1.6488615 6.71874462 -4.625 9.3125 C-5.97658203 10.49972656 -5.97658203 10.49972656 -7.35546875 11.7109375 C-8.22816406 12.46632813 -9.10085937 13.22171875 -10 14 C-11.3129129 15.1453602 -12.6254487 16.2911529 -13.9375 17.4375 C-14.56785156 17.98535156 -15.19820312 18.53320312 -15.84765625 19.09765625 C-19.50680937 22.33178977 -23.089434 25.65070377 -26.6796875 28.9609375 C-29 31 -29 31 -31 32 C-31 32.66 -31 33.32 -31 34 C-28.36 34.99 -25.72 35.98 -23 37 C-27.06109369 38.01527342 -27.66966838 38.05430484 -31.25 36.5625 C-32.30960938 36.13130859 -32.30960938 36.13130859 -33.390625 35.69140625 C-33.92171875 35.46324219 -34.4528125 35.23507813 -35 35 C-34.2421875 31.21875 -34.2421875 31.21875 -32.0625 29.25 C-30 28 -30 28 -28 28 C-27.34 26.68 -26.68 25.36 -26 24 C-25.34 24 -24.68 24 -24 24 C-23.67 23.01 -23.34 22.02 -23 21 C-21.00390625 19.28125 -21.00390625 19.28125 -18.5625 17.5 C-15.6756702 15.3870074 -14.01015789 14.01523684 -12 11 C-11.01 11 -10.02 11 -9 11 C-9 10.34 -9 9.68 -9 9 C-7.28515625 7.34375 -7.28515625 7.34375 -5.0625 5.5 C-2.07954821 3.11073001 -2.07954821 3.11073001 0 0 Z " fill="#E1E8F1" transform="translate(70,69)"/>
<path d="M0 0 C2.31 0.33 4.62 0.66 7 1 C7 1.66 7 2.32 7 3 C7.65226562 3.10957031 8.30453125 3.21914062 8.9765625 3.33203125 C14.08742366 4.25922288 18.51123594 5.23768366 23 8 C23.33 8.66 23.66 9.32 24 10 C25.66128463 10.35919668 27.32900023 10.68911632 29 11 C31.3125 12.0625 31.3125 12.0625 33 13 C32.67 13.99 32.34 14.98 32 16 C29.21673205 17.35910331 26.17432971 18.01431545 23.1875 18.8125 C22.36701172 19.05419922 21.54652344 19.29589844 20.70117188 19.54492188 C19.90646484 19.76341797 19.11175781 19.98191406 18.29296875 20.20703125 C17.5661792 20.4078833 16.83938965 20.60873535 16.09057617 20.81567383 C13.4943237 21.0445855 12.19681511 20.33146879 10 19 C12.4363189 18.32873871 14.87388883 17.66283646 17.3125 17 C18.00279297 16.80921875 18.69308594 16.6184375 19.40429688 16.421875 C22.35787949 15.62283816 24.92559219 15 28 15 C25.52616317 12.11176675 22.99996468 10.98278132 19.4921875 9.58984375 C18.42355469 9.15736328 17.35492188 8.72488281 16.25390625 8.27929688 C15.13886719 7.83650391 14.02382812 7.39371094 12.875 6.9375 C10.66159236 6.05696527 8.4505108 5.17055311 6.2421875 4.27734375 C5.2610498 3.88796631 4.27991211 3.49858887 3.26904297 3.09741211 C1 2 1 2 0 0 Z " fill="#EAEDF5" transform="translate(85,158)"/>
<path d="M0 0 C0.99 0.33 1.98 0.66 3 1 C1.71034824 2.37562854 0.37310707 3.70766393 -1 5 C-1.66 5 -2.32 5 -3 5 C-3 5.66 -3 6.32 -3 7 C-4.92587579 8.63139937 -6.84326717 10.13723225 -8.875 11.625 C-9.43058594 12.04523437 -9.98617187 12.46546875 -10.55859375 12.8984375 C-14.73764712 16 -14.73764712 16 -17 16 C-17 16.66 -17 17.32 -17 18 C-23.1770842 23.67623953 -30.35500851 29.50053207 -38 33 C-36.45347807 28.66367382 -33.10911509 26.47257877 -29.5625 23.8125 C-28.2857498 22.83295406 -27.00971599 21.85247373 -25.734375 20.87109375 C-24.78401367 20.1438208 -24.78401367 20.1438208 -23.81445312 19.40185547 C-21.27482545 17.43972655 -18.79130434 15.41320761 -16.3125 13.375 C-15.44238281 12.6634375 -14.57226562 11.951875 -13.67578125 11.21875 C-11.76252652 9.63228476 -9.8658333 8.02576108 -7.98046875 6.40625 C-6.99691406 5.5709375 -6.01335938 4.735625 -5 3.875 C-4.113125 3.10929687 -3.22625 2.34359375 -2.3125 1.5546875 C-1.549375 1.04164062 -0.78625 0.52859375 0 0 Z " fill="#DBE2ED" transform="translate(46,47)"/>
<path d="M0 0 C0 0.33 0 0.66 0 1 C-5.19183474 1.28903315 -10.38388635 1.57367321 -15.57617188 1.85449219 C-17.33730341 1.9503317 -19.09837349 2.04730825 -20.859375 2.14550781 C-30.57966644 2.68675131 -40.25975884 3.17736403 -50 3 C-47.02543734 1.01695823 -46.18197038 0.71007334 -42.8125 0.4375 C-41.92820312 0.3653125 -41.04390625 0.293125 -40.1328125 0.21875 C-39.09898438 0.1465625 -38.06515625 0.074375 -37 0 C-35.75992188 -0.0928125 -34.51984375 -0.185625 -33.2421875 -0.28125 C-22.14215408 -1.07266006 -11.04028076 -1.73180875 0 0 Z " fill="#E0E3F2" transform="translate(93,202)"/>
<path d="M0 0 C13.45419847 3.22900763 13.45419847 3.22900763 18.875 7 C22.22436913 9.14359625 25.15683376 10.05733658 29 11 C29.99 11.33 30.98 11.66 32 12 C32 12.66 32 13.32 32 14 C32.99 14.33 33.98 14.66 35 15 C31.01266193 16.32911269 28.84940829 14.92964872 25.21484375 13.2890625 C24.22950401 12.85767471 24.22950401 12.85767471 23.22425842 12.41757202 C21.12457179 11.49571425 19.03113058 10.56051838 16.9375 9.625 C15.52317098 9.00173088 14.10846146 8.37932442 12.69335938 7.7578125 C2.83921639 3.41960819 2.83921639 3.41960819 0 2 C0 1.34 0 0.68 0 0 Z " fill="#E1E8F1" transform="translate(49,142)"/>
<path d="M0 0 C6.6 0.33 13.2 0.66 20 1 C20 1.66 20 2.32 20 3 C16.95866211 3.19572967 13.91723937 3.38183916 10.875 3.5625 C9.59109375 3.64661133 9.59109375 3.64661133 8.28125 3.73242188 C3.67818141 3.99798352 -0.45819546 4.00515346 -5 3 C-5 2.67 -5 2.34 -5 2 C-3.35 2 -1.7 2 0 2 C0 1.34 0 0.68 0 0 Z M-7 3 C-6.34 3.33 -5.68 3.66 -5 4 C-6.375 5.5 -6.375 5.5 -8 7 C-8.66 7 -9.32 7 -10 7 C-10 6.34 -10 5.68 -10 5 C-9.01 4.34 -8.02 3.68 -7 3 Z M-12 7 C-11.34 7.33 -10.68 7.66 -10 8 C-10.8125 9.9375 -10.8125 9.9375 -12 12 C-12.99 12.33 -13.98 12.66 -15 13 C-15.66 12.34 -16.32 11.68 -17 11 C-15.35 9.68 -13.7 8.36 -12 7 Z " fill="#ECEFF9" transform="translate(110,1)"/>
<path d="M0 0 C0.66 0.33 1.32 0.66 2 1 C-2.44320453 5.54955783 -6.96207815 9.92533053 -11.78515625 14.0703125 C-15.41458821 17.2324631 -18.94198527 20.50662645 -22.484375 23.765625 C-24.59169146 25.63734086 -26.71436413 27.35519662 -29 29 C-29.66 28.67 -30.32 28.34 -31 28 C-28.19195732 25.03595495 -25.81684226 22.55500981 -22 21 C-22 20.34 -22 19.68 -22 19 C-20.20703125 17.44921875 -20.20703125 17.44921875 -17.8125 15.6875 C-14.24916112 12.99556954 -11.12129166 10.20132478 -8 7 C-5.36131431 4.63411076 -2.68559625 2.31241166 0 0 Z " fill="#D6DBE8" transform="translate(102,42)"/>
<path d="M0 0 C-8.7713859 0.89427808 -17.43723836 1.12469647 -26.25 1.0625 C-28.10044922 1.05573242 -28.10044922 1.05573242 -29.98828125 1.04882812 C-32.99224069 1.03718487 -35.99609266 1.02083376 -39 1 C-39 0.67 -39 0.34 -39 0 C-35.25073924 -0.34199953 -31.50050426 -0.67194171 -27.75 -1 C-26.18378906 -1.14308594 -26.18378906 -1.14308594 -24.5859375 -1.2890625 C-4.53304303 -3.02202869 -4.53304303 -3.02202869 0 0 Z " fill="#DCE2EE" transform="translate(124,201)"/>
<path d="M0 0 C2.31 0 4.62 0 7 0 C9.26200586 7.98540674 11.41640925 15.68383188 12 24 C11.34 24.33 10.68 24.66 10 25 C7.87111461 17.32797907 6.45406625 9.95398808 6 2 C4.02 2 2.04 2 0 2 C0 1.34 0 0.68 0 0 Z " fill="#D3D8E4" transform="translate(130,2)"/>
<path d="M0 0 C1.20849609 0.00322266 2.41699219 0.00644531 3.66210938 0.00976562 C5.55606445 0.02233398 5.55606445 0.02233398 7.48828125 0.03515625 C9.39963867 0.04192383 9.39963867 0.04192383 11.34960938 0.04882812 C14.50004689 0.06062752 17.65039074 0.07709028 20.80078125 0.09765625 C17.2495822 2.46512228 14.48218174 2.5385364 10.36328125 2.72265625 C9.65623047 2.76060303 8.94917969 2.7985498 8.22070312 2.83764648 C2.0807152 3.14284652 -4.05255713 3.20242889 -10.19921875 3.09765625 C-8.20644279 -0.88789567 -3.93210784 -0.0184606 0 0 Z " fill="#DCE6F4" transform="translate(16.19921875,203.90234375)"/>
<path d="M0 0 C6.20819443 0.01425533 12.20364598 0.17027167 18.33984375 1.1328125 C18.33984375 1.4628125 18.33984375 1.7928125 18.33984375 2.1328125 C-1.00058178 3.32430186 -1.00058178 3.32430186 -10.66015625 3.1328125 C-10.66015625 2.8028125 -10.66015625 2.4728125 -10.66015625 2.1328125 C-9.52578125 1.9884375 -8.39140625 1.8440625 -7.22265625 1.6953125 C-3.85258385 1.16319581 -3.16872702 0.1582037 0 0 Z " fill="#E7EBF6" transform="translate(74.66015625,200.8671875)"/>
<path d="M0 0 C-3.1664178 2.70972293 -5.96936423 3.76249424 -10 4.75 C-11.546875 5.14445313 -11.546875 5.14445313 -13.125 5.546875 C-15.87430977 5.98019013 -17.41340535 5.92023079 -20 5 C-6.08928571 -0.36904762 -6.08928571 -0.36904762 0 0 Z " fill="#C9CEDD" transform="translate(97,178)"/>
<path d="M0 0 C10.96938776 2.63265306 10.96938776 2.63265306 16 5 C16.33 5.66 16.66 6.32 17 7 C13.99353048 8.30230734 12.90644333 7.96485975 9.765625 6.78515625 C8.60546875 6.21667969 7.4453125 5.64820313 6.25 5.0625 C4.49429688 4.21365234 4.49429688 4.21365234 2.703125 3.34765625 C1.81109375 2.90292969 0.9190625 2.45820313 0 2 C0 1.34 0 0.68 0 0 Z " fill="#E9EFF5" transform="translate(49,142)"/>
<path d="M0 0 C0.66 0 1.32 0 2 0 C2.33 1.65 2.66 3.3 3 5 C4.65 5.33 6.3 5.66 8 6 C8 6.66 8 7.32 8 8 C9.98 8.66 11.96 9.32 14 10 C11.26980214 11.06528748 10.20701188 11.07998186 7.421875 10.00390625 C6.54015625 9.52824219 5.6584375 9.05257812 4.75 8.5625 C3.85796875 8.08941406 2.9659375 7.61632812 2.046875 7.12890625 C1.37140625 6.75636719 0.6959375 6.38382812 0 6 C0 4.02 0 2.04 0 0 Z " fill="#D7DDE6" transform="translate(0,117)"/>
<path d="M0 0 C0.66 0.66 1.32 1.32 2 2 C1.01 2.495 1.01 2.495 0 3 C0 3.66 0 4.32 0 5 C2.64 5.99 5.28 6.98 8 8 C3.93890631 9.01527342 3.33033162 9.05430484 -0.25 7.5625 C-0.95640625 7.27503906 -1.6628125 6.98757812 -2.390625 6.69140625 C-2.92171875 6.46324219 -3.4528125 6.23507813 -4 6 C-3.6875 4.125 -3.6875 4.125 -3 2 C-2.01 1.34 -1.02 0.68 0 0 Z " fill="#E6EDF5" transform="translate(39,98)"/>
<path d="M0 0 C0 2 0 2 -1.57421875 3.5859375 C-2.27160156 4.17632812 -2.96898438 4.76671875 -3.6875 5.375 C-4.77611328 6.30119141 -4.77611328 6.30119141 -5.88671875 7.24609375 C-8.23449112 9.19461463 -10.59564775 11.1215998 -13 13 C-13 10 -13 10 -10.6640625 7.51953125 C-9.65873726 6.60862148 -8.64533316 5.70656694 -7.625 4.8125 C-7.11710937 4.34908203 -6.60921875 3.88566406 -6.0859375 3.40820312 C-2.27115933 0 -2.27115933 0 0 0 Z " fill="#DAE0EB" transform="translate(117,30)"/>
<path d="M0 0 C2.31 0.33 4.62 0.66 7 1 C7 1.66 7 2.32 7 3 C7.721875 3.103125 8.44375 3.20625 9.1875 3.3125 C12.24491993 4.05986932 14.38329635 5.28045189 17 7 C16.01 7.495 16.01 7.495 15 8 C12.57811713 7.13986463 10.28234422 6.22315901 7.9375 5.1875 C7.28716797 4.91357422 6.63683594 4.63964844 5.96679688 4.35742188 C1.12912168 2.25824336 1.12912168 2.25824336 0 0 Z " fill="#E3E7EF" transform="translate(85,158)"/>
<path d="M0 0 C0.66 0.33 1.32 0.66 2 1 C-6.261959 9.44646925 -6.261959 9.44646925 -11 13 C-11.66 12.67 -12.32 12.34 -13 12 C-8.87675353 7.74790208 -4.48717034 3.86364295 0 0 Z " fill="#CED4E1" transform="translate(102,42)"/>
<path d="M0 0 C3.3 1.65 6.6 3.3 10 5 C9.67 6.65 9.34 8.3 9 10 C8.814375 9.4225 8.62875 8.845 8.4375 8.25 C6.29448878 4.89572157 3.51177437 3.82092004 0 2 C0 1.34 0 0.68 0 0 Z " fill="#C7CFE4" transform="translate(140,144)"/>
<path d="M0 0 C0 0.66 0 1.32 0 2 C-1.43534841 2.2226746 -2.87345525 2.42761906 -4.3125 2.625 C-5.11300781 2.74101562 -5.91351563 2.85703125 -6.73828125 2.9765625 C-9 3 -9 3 -12 1 C-8.0186217 -0.3271261 -4.14954773 -0.06915913 0 0 Z " fill="#D3D8ED" transform="translate(133,198)"/>
<path d="M0 0 C1.5 1.25 1.5 1.25 3 3 C3 4.32 3 5.64 3 7 C2.01 7 1.02 7 0 7 C-0.99 5.02 -1.98 3.04 -3 1 C-2.01 0.67 -1.02 0.34 0 0 Z " fill="#BDCCDB" transform="translate(147,55)"/>
<path d="M0 0 C0.99 0.33 1.98 0.66 3 1 C1.71372289 2.17260611 0.42080217 3.3379283 -0.875 4.5 C-1.59429688 5.1496875 -2.31359375 5.799375 -3.0546875 6.46875 C-5 8 -5 8 -7 8 C-5.51218185 4.21282653 -3.38011591 2.22592999 0 0 Z " fill="#D4D8E6" transform="translate(15,72)"/>
<path d="M0 0 C2 1 2 1 2.703125 2.99609375 C2.88359375 3.80175781 3.0640625 4.60742188 3.25 5.4375 C3.44078125 6.24058594 3.6315625 7.04367188 3.828125 7.87109375 C3.88484375 8.57363281 3.9415625 9.27617188 4 10 C3.34 10.66 2.68 11.32 2 12 C0.70756464 7.8803623 -0.26252625 4.33168317 0 0 Z " fill="#C9CFDC" transform="translate(141,26)"/>
<path d="M0 0 C6.625 0.75 6.625 0.75 10 3 C6.65155086 4.05236973 5.40920111 4.20005388 2.1875 2.625 C1.465625 2.08875 0.74375 1.5525 0 1 C0 0.67 0 0.34 0 0 Z " fill="#D7E2EA" transform="translate(45,107)"/>
<path d="M0 0 C-1.75 2.0625 -1.75 2.0625 -4 4 C-6.25 3.75 -6.25 3.75 -8 3 C-5.53387212 -0.1151089 -3.89156016 -0.31553191 0 0 Z " fill="#B4C3DA" transform="translate(9,204)"/>
<path d="M0 0 C2.64 0.99 5.28 1.98 8 3 C7.67 3.66 7.34 4.32 7 5 C4.03 4.01 1.06 3.02 -2 2 C-1.34 1.34 -0.68 0.68 0 0 Z " fill="#E8EEF7" transform="translate(27,132)"/>
<path d="M0 0 C0.66 0.33 1.32 0.66 2 1 C1.0479279 2.00596297 0.08812654 3.00461563 -0.875 4 C-1.40867187 4.556875 -1.94234375 5.11375 -2.4921875 5.6875 C-4 7 -4 7 -6 7 C-6 6.34 -6 5.68 -6 5 C-5.34 5 -4.68 5 -4 5 C-3.71125 4.360625 -3.4225 3.72125 -3.125 3.0625 C-2 1 -2 1 0 0 Z " fill="#DCE3E9" transform="translate(46,92)"/>
</svg>
