<?xml version="1.0" encoding="UTF-8"?>
<svg version="1.1" xmlns="http://www.w3.org/2000/svg" width="794" height="314">
<path d="M0 0 C2.77781997 0.13826253 5.55621231 0.25504137 8.33496094 0.37304688 C12.55795597 0.55696291 16.7789166 0.77696355 21 1 C23.61425467 10.31904901 25.92389366 19.70037341 28.125 29.125 C28.37846191 30.1960498 28.63192383 31.26709961 28.89306641 32.37060547 C30.40060758 38.89134297 31.60504887 45.39933035 32.56591797 52.02294922 C33.00334765 55.02295906 33.49266088 58.01109872 34 61 C33.01 61 32.02 61 31 61 C30.7525 60.21625 30.505 59.4325 30.25 58.625 C28.76779118 55.51236148 27.96986543 55.46293371 25 54 C23.5 52.546875 23.5 52.546875 22 50.75 C21.40960938 50.05003906 20.81921875 49.35007813 20.2109375 48.62890625 C19.11652344 47.32759766 19.11652344 47.32759766 18 46 C16.97322197 44.81998673 15.94442352 43.64172973 14.9140625 42.46484375 C13.81757705 41.20584349 12.72122352 39.94672833 11.625 38.6875 C11.08875 38.07680664 10.5525 37.46611328 10 36.83691406 C7.76132538 34.24665273 6.09362706 32.28088118 5 29 C-0.61684902 31.7486708 -4.41839436 35.22177068 -8.75 39.70703125 C-11.35206194 42.35878534 -14.09447126 44.7754961 -16.91015625 47.1953125 C-21.0009628 50.72793423 -24.98870732 54.37768115 -29 58 C-35.97108589 64.2951018 -42.95033214 70.57219564 -50.1171875 76.64453125 C-57.09282381 82.56630867 -63.91237334 88.60606757 -70.55712891 94.89892578 C-74.80067727 98.90033864 -74.80067727 98.90033864 -77 100 C-77 100.66 -77 101.32 -77 102 C-76.16041748 102.32162109 -75.32083496 102.64324219 -74.45581055 102.97460938 C-71.23594432 104.20978345 -68.01719146 105.44778468 -64.79907227 106.6875 C-63.42578743 107.21591854 -62.05210985 107.74331791 -60.67797852 108.26953125 C-50.99816232 111.97745348 -41.4230517 115.8919066 -31.88012695 119.93847656 C-24.52107554 123.05600696 -17.12372524 126.08056438 -9.72802734 129.10986328 C-7.23617169 130.13066484 -4.74500351 131.15313053 -2.25390625 132.17578125 C-0.61202265 132.84906437 1.02990393 133.5222427 2.671875 134.1953125 C3.46605835 134.52122375 4.2602417 134.84713501 5.07849121 135.18292236 C8.80772747 136.70953568 12.54170626 138.21975202 16.29492188 139.68652344 C16.96759094 139.95052948 17.64026001 140.21453552 18.33331299 140.48654175 C20.12435954 141.18694453 21.91803004 141.88062736 23.71191406 142.57373047 C27.33536223 144.14546972 30.60580407 145.98533534 34 148 C33.11634531 155.43734106 31.86036544 162.7851297 30.52587891 170.15332031 C30.12740907 172.36164887 29.7374322 174.57137272 29.34765625 176.78125 C29.08906427 178.21624011 28.82996591 179.65113907 28.5703125 181.0859375 C28.34102051 182.3651709 28.11172852 183.6444043 27.87548828 184.96240234 C26.92595514 189.73803573 25.46067649 194.36002523 24 199 C6.85663206 200.28630499 -10.28321594 201.39812233 -27.45315552 202.26205444 C-33.56023458 202.56956132 -39.66682066 202.88659199 -45.7734375 203.203125 C-47.0202681 203.26759323 -48.26709869 203.33206146 -49.55171204 203.39848328 C-63.39110678 204.11769977 -77.2269382 204.89842121 -91.0625 205.6875 C-92.23166962 205.75411835 -93.40083923 205.82073669 -94.60543823 205.88937378 C-101.07038413 206.25798886 -107.5352362 206.62820535 -114 207 C-114 206.01 -114 205.02 -114 204 C-66.46756878 189.20326379 -66.46756878 189.20326379 -47.1796875 183.75390625 C-42.91440854 182.54811936 -38.65447537 181.3247789 -34.39660645 180.09315491 C-31.19303499 179.16671966 -27.9885675 178.24340419 -24.78405762 177.32022095 C-23.1834926 176.85831986 -21.58330979 176.39509221 -19.98352051 175.93051147 C-17.72703196 175.27552995 -15.4691606 174.62553434 -13.2109375 173.9765625 C-12.52750275 173.77687363 -11.84406799 173.57718475 -11.1399231 173.3714447 C-8.31669919 172.56451117 -5.95428939 172 -3 172 C-5.31312684 169.37652435 -7.43122764 168.20952457 -10.66796875 166.92578125 C-11.67907715 166.51730957 -12.69018555 166.10883789 -13.73193359 165.68798828 C-14.87227051 165.23407715 -16.01260742 164.78016602 -17.1875 164.3125 C-19.78940153 163.25773101 -22.38984885 162.19995884 -24.98828125 161.13671875 C-26.09441772 160.68443909 -26.09441772 160.68443909 -27.22290039 160.22302246 C-40.74906124 154.66475159 -54.15492514 148.8130863 -67.58480835 143.02676392 C-85.24921631 135.3892045 -85.24921631 135.3892045 -103.0925293 128.18457031 C-107.5255775 126.3784447 -111.77564312 124.24636389 -116 122 C-115.38167003 112.52762575 -114.41886412 103.14530268 -113.0625 93.75 C-112.91232422 92.45320313 -112.76214844 91.15640625 -112.60742188 89.8203125 C-111.35135759 81.4008236 -109.28199702 77.06683057 -102.51928711 71.7980957 C-101.68792236 71.20472412 -100.85655762 70.61135254 -100 70 C-98.49690664 68.81641789 -96.99637852 67.62956023 -95.5 66.4375 C-94.76007813 65.87289062 -94.02015625 65.30828125 -93.2578125 64.7265625 C-90.93769644 62.9523561 -88.65349545 61.13980823 -86.375 59.3125 C-85.54226562 58.64476562 -84.70953125 57.97703125 -83.8515625 57.2890625 C-82.91054687 56.53367188 -81.96953125 55.77828125 -81 55 C-78.58417687 53.06144582 -76.16746723 51.12400355 -73.75 49.1875 C-73.10836914 48.67340576 -72.46673828 48.15931152 -71.80566406 47.62963867 C-68.16169726 44.71455628 -64.50198134 41.821483 -60.82324219 38.95043945 C-54.97530025 34.3862536 -49.21423511 29.73067928 -43.5 25 C-37.64786081 20.15532604 -31.77090179 15.35060566 -25.75048828 10.71557617 C-23.26981216 8.80550603 -20.86689718 6.87837889 -18.5546875 4.765625 C-12.42267944 -0.72900588 -7.99482315 -0.66623526 0 0 Z " fill="#FDFDFD" transform="translate(159,41)"/>
<path d="M0 0 C1.39712274 1.95597184 2.71927629 3.9659094 4 6 C5.33616295 7.80572878 6.6840227 9.60105383 8.046875 11.38671875 C9 13 9 13 9 16 C9.66 16 10.32 16 11 16 C13 19 13 19 13 22 C13.66 22 14.32 22 15 22 C17 25 17 25 17 28 C17.66 28 18.32 28 19 28 C19 28.99 19 29.98 19 31 C19.66 31 20.32 31 21 31 C21.81567174 32.43570266 22.62742093 33.87363434 23.4375 35.3125 C24.11619141 36.51326172 24.11619141 36.51326172 24.80859375 37.73828125 C26 40 26 40 27 43 C27.66 43 28.32 43 29 43 C29.37511719 43.71285156 29.75023437 44.42570312 30.13671875 45.16015625 C33.11213883 50.72876361 36.12015755 56.01163114 40 61 C40.33 61 40.66 61 41 61 C41.33 40.87 41.66 20.74 42 0 C46.62 0 51.24 0 56 0 C56.02312255 11.3261163 56.04091464 22.65222703 56.05181217 33.97836208 C56.05704119 39.23696664 56.06413918 44.4955551 56.07543945 49.75415039 C56.08626766 54.82453127 56.09227669 59.89489662 56.09487724 64.96528816 C56.09673161 66.90426948 56.10035245 68.84324991 56.10573006 70.78222466 C56.1129396 73.4882176 56.11399098 76.19414556 56.11352539 78.90014648 C56.11712067 79.71006546 56.12071594 80.51998444 56.12442017 81.35444641 C56.11405216 86.88594784 56.11405216 86.88594784 55 88 C51.14510959 88.85358288 47.84485977 88.93101971 44 88 C40.22598193 84.86091893 37.67584137 81.08766625 35 77 C34.39542969 76.08992188 33.79085937 75.17984375 33.16796875 74.2421875 C32.00702612 72.44442984 30.86521412 70.63418373 29.7421875 68.8125 C27.90872213 65.85264559 25.99897846 62.95591528 24.0625 60.0625 C23.39089844 59.05832031 22.71929688 58.05414063 22.02734375 57.01953125 C20.70959374 55.05687084 19.38941377 53.09583898 18.06640625 51.13671875 C12.51270836 42.8788058 7.23887384 34.459493 2 26 C0.24650097 27.75349903 0.83869084 30.22273346 0.81054688 32.60546875 C0.79382935 33.80341064 0.77711182 35.00135254 0.7598877 36.2355957 C0.74631226 37.53972412 0.73273682 38.84385254 0.71875 40.1875 C0.70072206 41.52889772 0.68211954 42.87028783 0.66296387 44.21166992 C0.60318231 48.474384 0.55105826 52.73717367 0.5 57 C0.44085732 61.93779008 0.37863295 66.87549892 0.30812073 71.81314087 C0.28146039 73.79684572 0.2607626 75.78062777 0.2401123 77.7644043 C0.22339478 78.96234619 0.20667725 80.16028809 0.18945312 81.39453125 C0.17692505 82.45518799 0.16439697 83.51584473 0.15148926 84.60864258 C0 87 0 87 -1 88 C-4.96 88 -8.92 88 -13 88 C-13 58.96 -13 29.92 -13 0 C-3 -1 -3 -1 0 0 Z " fill="#FEFEFE" transform="translate(683,128)"/>
<path d="M0 0 C7.73512127 4.5871068 12.06457885 11.74826668 14.85546875 20.1328125 C15.9499376 25.10767093 15.81794157 30.00193007 15.5 35.0625 C1.16606646 36.18046696 -13.12892715 36.17022918 -27.5 36.0625 C-26.59173305 41.25386895 -25.10893614 46.04209132 -20.8203125 49.36328125 C-15.24842855 52.65141019 -10.9184142 53.48337962 -4.5 53.0625 C-2.1519741 52.40601935 0.11832541 51.62741883 2.41015625 50.796875 C4.74399038 49.97676132 7.05913374 49.45618811 9.5 49.0625 C10.82 51.3725 12.14 53.6825 13.5 56.0625 C5.29269922 62.52356657 -3.65040189 65.59272249 -14.16015625 64.8828125 C-22.37422029 63.7506349 -29.81859317 60.44371874 -35.375 54.125 C-42.33396862 44.09589817 -43.39587891 35.05581496 -42.5 23.0625 C-40.99285218 14.83035464 -38.20276384 9.17776714 -31.5 4.0625 C-31.17 3.4025 -30.84 2.7425 -30.5 2.0625 C-21.57373391 -3.37260424 -9.55922795 -4.19673422 0 0 Z M-23.5 11.0625 C-24.37822312 13.14783633 -24.37822312 13.14783633 -24.5 15.0625 C-25.16 15.0625 -25.82 15.0625 -26.5 15.0625 C-28.23734147 18.86293446 -28.5 20.65964577 -28.5 25.0625 C-18.6 25.0625 -8.7 25.0625 1.5 25.0625 C1.07526786 17.04721797 1.07526786 17.04721797 -2.5 11.0625 C-8.49349867 6.82319606 -17.7684233 5.88559201 -23.5 11.0625 Z " fill="#FDFDFD" transform="translate(257.5,152.9375)"/>
<path d="M0 0 C4.29 0 8.58 0 13 0 C16.42207726 8.21298542 19.33848527 16.57702874 22.25 24.98046875 C23.33067127 28.09628574 24.42960638 31.20357271 25.5625 34.30078125 C25.79654541 34.94241211 26.03059082 35.58404297 26.27172852 36.24511719 C26.89525842 37.9471915 27.52362638 39.64749127 28.15234375 41.34765625 C29 44 29 44 29 47 C29.66 47 30.32 47 31 47 C31.13535156 46.41476563 31.27070312 45.82953125 31.41015625 45.2265625 C33.15401403 38.27201591 35.58142579 31.72370605 38.22729492 25.0769043 C40.70000541 18.84650919 42.96488544 12.56035024 45.1340332 6.21826172 C46.89953016 1.10046984 46.89953016 1.10046984 48 0 C50.18639453 -0.07258946 52.37500389 -0.08373783 54.5625 -0.0625 C56.35880859 -0.04896484 56.35880859 -0.04896484 58.19140625 -0.03515625 C59.11824219 -0.02355469 60.04507813 -0.01195312 61 0 C60.02938736 6.67839441 58.14289818 12.21479912 55.22265625 18.28515625 C54.07956215 20.82333643 53.24942151 23.2609946 52.5 25.9375 C50.84360151 31.84251384 48.41146969 37.37074877 46 43 C43.94087516 47.9040641 42.02144011 52.75648386 40.5625 57.875 C37.18045433 69.54673369 32.5208091 82.84266818 21.625 89.4375 C13.75286375 91.12438634 7.711026 87.72681977 1 84 C1.75 81.0625 1.75 81.0625 3 78 C6.02724359 76.76277871 8.34536772 77.09870733 11.5 77.6875 C15.07017102 78.14341878 15.07017102 78.14341878 18.3125 76.6875 C22.12401621 70.71361462 22.12401621 70.71361462 24 64 C23.16724799 62.17741357 22.30698106 60.36392845 21.33642578 58.61083984 C19.6489162 55.3141231 18.32748282 51.9057111 17.01171875 48.44921875 C16.74543167 47.75215317 16.47914459 47.05508759 16.20478821 46.3368988 C15.36198643 44.12181867 14.52442857 41.90480521 13.6875 39.6875 C13.10737647 38.15804635 12.52705332 36.6286684 11.9465332 35.09936523 C10.54203206 31.39518884 9.14337439 27.68884038 7.74707031 23.98156738 C7.07155497 22.18979605 6.39335785 20.39903634 5.71484375 18.60839844 C4.69985721 15.92858641 3.69156239 13.24642035 2.6875 10.5625 C2.26247192 9.43944458 2.26247192 9.43944458 1.82885742 8.29370117 C0.75036802 5.37853489 0 3.13649544 0 0 Z " fill="#FDFDFD" transform="translate(490,152)"/>
<path d="M0 0 C5.25647946 4.28502883 7.65497681 8.61644065 8.54296875 15.2578125 C9.57145449 25.79427721 9.54454895 36.13361977 9.10546875 46.6953125 C9.05202533 48.12041629 8.99928815 49.54554675 8.94726562 50.97070312 C8.82058901 54.40008372 8.68453805 57.82901043 8.54296875 61.2578125 C5.3007532 62.33855102 2.93893938 62.47457658 -0.45703125 62.2578125 C-1.11703125 61.5978125 -1.77703125 60.9378125 -2.45703125 60.2578125 C-2.45703125 59.2678125 -2.45703125 58.2778125 -2.45703125 57.2578125 C-3.14925781 57.6909375 -3.84148437 58.1240625 -4.5546875 58.5703125 C-12.91428168 63.32834239 -19.91359717 64.41492633 -29.45703125 63.2578125 C-32.15379709 62.51431164 -34.03181067 61.67745381 -36.45703125 60.2578125 C-36.45703125 59.5978125 -36.45703125 58.9378125 -36.45703125 58.2578125 C-37.44703125 57.9278125 -38.43703125 57.5978125 -39.45703125 57.2578125 C-42.63754018 52.93232036 -44.67968795 48.24235977 -44.2734375 42.796875 C-43.24975395 36.76348349 -41.68182393 31.92608068 -36.8046875 27.890625 C-27.92943109 21.75598969 -17.04232093 20.32017061 -6.45703125 20.2578125 C-5.79703125 20.5878125 -5.13703125 20.9178125 -4.45703125 21.2578125 C-5.40637024 17.90348141 -6.3545196 14.56534745 -7.45703125 11.2578125 C-14.11419458 7.6629443 -19.36474735 7.54067519 -26.64453125 9.6328125 C-29.7484024 10.60063374 -32.58230652 11.7378431 -35.45703125 13.2578125 C-37.43703125 9.7928125 -37.43703125 9.7928125 -39.45703125 6.2578125 C-28.45547054 -1.61135939 -12.93887156 -8.16891229 0 0 Z M-23.45703125 32.2578125 C-24.19953125 32.5053125 -24.94203125 32.7528125 -25.70703125 33.0078125 C-28.51301254 35.01208485 -29.32119137 37.029636 -30.45703125 40.2578125 C-30.75018958 44.61330769 -30.22789107 47.37359094 -27.33203125 50.6953125 C-23.31331217 52.87939896 -19.96785802 53.79823807 -15.40625 52.81640625 C-10.66018996 51.25226217 -7.62413516 49.25064505 -4.45703125 45.2578125 C-4.0893188 42.4190724 -3.97072321 40.23961099 -4.14453125 37.4453125 C-4.16708984 36.75244141 -4.18964844 36.05957031 -4.21289062 35.34570312 C-4.27140464 33.64879677 -4.36107645 31.95301389 -4.45703125 30.2578125 C-11.15582175 30.05981869 -17.13528334 29.88715703 -23.45703125 32.2578125 Z " fill="#FEFEFE" transform="translate(417.45703125,153.7421875)"/>
<path d="M0 0 C22.44 0 44.88 0 68 0 C68 3.63 68 7.26 68 11 C67 12 67 12 65.03808594 12.09765625 C64.19536133 12.08605469 63.35263672 12.07445312 62.484375 12.0625 C61.56269531 12.05476562 60.64101563 12.04703125 59.69140625 12.0390625 C57.74609098 12.0132283 55.80077842 11.98718999 53.85546875 11.9609375 C52.46521484 11.94933594 52.46521484 11.94933594 51.046875 11.9375 C50.19963867 11.92589844 49.35240234 11.91429687 48.47949219 11.90234375 C45.89114208 12.00428743 43.53052793 12.46703542 41 13 C40.98969254 13.92485703 40.97938507 14.84971405 40.96876526 15.80259705 C40.87096818 24.49959224 40.76847962 33.19651656 40.66066074 41.89339352 C40.60539123 46.36501994 40.55196493 50.83665285 40.50268555 55.30834961 C40.45510123 59.62017766 40.40276084 63.93192368 40.34705925 68.24365425 C40.32660872 69.89233939 40.30790019 71.54104706 40.29092598 73.18977165 C40.26694141 75.4910996 40.23687923 77.7922711 40.20532227 80.09350586 C40.18977798 81.4058873 40.1742337 82.71826874 40.15821838 84.07041931 C40 87 40 87 39 88 C37.00200428 88.09873816 35.00042842 88.12971799 33 88.125 C31.906875 88.12757813 30.81375 88.13015625 29.6875 88.1328125 C27 88 27 88 26 87 C25.90507278 84.65746218 25.87440209 82.34453896 25.88647461 80.00170898 C25.88632858 79.27004517 25.88618256 78.53838135 25.8860321 77.7845459 C25.88673133 75.35503216 25.89452415 72.92559417 25.90234375 70.49609375 C25.9042079 68.81600486 25.90563181 67.13591543 25.90663147 65.45582581 C25.91045693 61.02526357 25.92028744 56.5947339 25.93133545 52.16418457 C25.94154897 47.64657024 25.94612896 43.12895066 25.95117188 38.61132812 C25.96190969 29.74087107 25.97898644 20.87043824 26 12 C25.28344238 12.00523682 24.56688477 12.01047363 23.82861328 12.01586914 C20.59408438 12.03660667 17.35956944 12.04964984 14.125 12.0625 C12.43310547 12.07506836 12.43310547 12.07506836 10.70703125 12.08789062 C9.63066406 12.09111328 8.55429687 12.09433594 7.4453125 12.09765625 C6.45031738 12.10289307 5.45532227 12.10812988 4.43017578 12.11352539 C2 12 2 12 0 11 C0 7.37 0 3.74 0 0 Z " fill="#FEFEFE" transform="translate(587,128)"/>
<path d="M0 0 C0.495 8.415 0.495 8.415 1 17 C6.61 17.33 12.22 17.66 18 18 C19.73360665 21.46721329 18.48361845 25.23852315 18 29 C12.06 29 6.12 29 0 29 C0.0739409 34.64245532 0.15671378 40.28330741 0.26245117 45.92504883 C0.2957225 47.84456098 0.32374754 49.76417148 0.34643555 51.68383789 C0.37994121 54.44199572 0.43225403 57.19925043 0.48828125 59.95703125 C0.49467117 60.81649857 0.5010611 61.67596588 0.50764465 62.56147766 C0.53733589 63.76238289 0.53733589 63.76238289 0.56762695 64.98754883 C0.57873001 65.6914827 0.58983307 66.39541656 0.60127258 67.12068176 C1.12932729 69.60955713 1.94398331 70.52461216 4 72 C8.13436619 71.73750056 12.01846073 71.16128229 16 70 C20 75.75 20 75.75 20 78 C13.91996931 81.97992347 8.40071892 84.59159352 1 84 C-4.71243971 82.4689229 -8.83771399 80.13871476 -12 75 C-12.91861784 72.24414648 -13.12204322 70.6403931 -13.11352539 67.80395508 C-13.11344986 66.96331009 -13.11337433 66.1226651 -13.11329651 65.25654602 C-13.10813522 64.35333115 -13.10297394 63.45011627 -13.09765625 62.51953125 C-13.0962413 61.59154221 -13.09482635 60.66355316 -13.09336853 59.70744324 C-13.08776937 56.74242942 -13.07521704 53.77749101 -13.0625 50.8125 C-13.05748489 48.80273547 -13.052922 46.79296975 -13.04882812 44.78320312 C-13.03780021 39.85543968 -13.02053617 34.92773263 -13 30 C-15.97 29.67 -18.94 29.34 -22 29 C-22 25.37 -22 21.74 -22 18 C-19.03 18 -16.06 18 -13 18 C-13.185625 16.783125 -13.37125 15.56625 -13.5625 14.3125 C-14.07451837 10.95593513 -14.11991057 8.2388024 -13 5 C-10.8203125 3.41796875 -10.8203125 3.41796875 -8.125 2.1875 C-6.79855469 1.55908203 -6.79855469 1.55908203 -5.4453125 0.91796875 C-3 0 -3 0 0 0 Z " fill="#FEFEFE" transform="translate(463,134)"/>
<path d="M0 0 C3.73562467 2.19102212 5.71515199 3.99205144 7.45703125 8.0078125 C6.05150826 9.04393521 4.63211431 10.06126175 3.20703125 11.0703125 C2.418125 11.63878906 1.62921875 12.20726562 0.81640625 12.79296875 C-1.54296875 14.0078125 -1.54296875 14.0078125 -3.6640625 13.76171875 C-4.28410156 13.51292969 -4.90414063 13.26414063 -5.54296875 13.0078125 C-10.34015159 11.08893937 -13.48247368 10.78954517 -18.54296875 12.0078125 C-20.78251716 13.18312419 -20.78251716 13.18312419 -22.54296875 15.0078125 C-23.15018342 17.22595271 -23.15018342 17.22595271 -23.07299805 19.73876953 C-23.08948898 20.69631134 -23.10597992 21.65385315 -23.12297058 22.64041138 C-23.12106216 23.67173187 -23.11915375 24.70305237 -23.1171875 25.765625 C-23.13135208 26.82441864 -23.14551666 27.88321228 -23.16011047 28.97409058 C-23.20210542 32.36043422 -23.21727184 35.74624473 -23.23046875 39.1328125 C-23.25947064 42.52627362 -23.29395268 45.91959741 -23.33296204 49.31295776 C-23.35554614 51.42627775 -23.37130628 53.53968312 -23.37980652 55.65310669 C-23.38684097 56.60434418 -23.39387543 57.55558167 -23.40112305 58.53564453 C-23.40634224 59.79781296 -23.40634224 59.79781296 -23.41166687 61.08547974 C-23.54296875 63.0078125 -23.54296875 63.0078125 -24.54296875 64.0078125 C-26.37412758 64.10632421 -28.20916808 64.13753879 -30.04296875 64.1328125 C-31.04328125 64.13539063 -32.04359375 64.13796875 -33.07421875 64.140625 C-35.54296875 64.0078125 -35.54296875 64.0078125 -36.54296875 63.0078125 C-36.63697545 61.04412097 -36.66040256 59.07702051 -36.65649414 57.11108398 C-36.65641861 55.84985214 -36.65634308 54.5886203 -36.65626526 53.28916931 C-36.65115785 51.90241456 -36.64594184 50.51566021 -36.640625 49.12890625 C-36.63876076 47.71786041 -36.63733689 46.30681393 -36.63633728 44.89576721 C-36.63251254 41.17540715 -36.62268265 37.4550859 -36.6116333 33.73474121 C-36.60141823 29.94100469 -36.59683946 26.14726192 -36.59179688 22.35351562 C-36.58106033 14.90493019 -36.56398445 7.45637678 -36.54296875 0.0078125 C-32.91296875 0.0078125 -29.28296875 0.0078125 -25.54296875 0.0078125 C-24.88296875 1.3278125 -24.22296875 2.6478125 -23.54296875 4.0078125 C-23.11628906 3.646875 -22.68960937 3.2859375 -22.25 2.9140625 C-15.63921072 -1.99291511 -7.76266646 -3.02875158 0 0 Z " fill="#FEFEFE" transform="translate(325.54296875,151.9921875)"/>
<path d="M0 0 C1.97909398 -0.02686553 3.95828971 -0.04633375 5.9375 -0.0625 C7.03964844 -0.07410156 8.14179688 -0.08570313 9.27734375 -0.09765625 C12 0 12 0 13 1 C13.09920863 2.92761817 13.12799365 4.85889354 13.12939453 6.7890625 C13.13254669 8.0270459 13.13569885 9.2650293 13.13894653 10.54052734 C13.13715675 11.90201859 13.1351058 13.26350951 13.1328125 14.625 C13.13348559 16.01123064 13.13445566 17.39746117 13.13571167 18.78369141 C13.1371884 21.69239422 13.1350349 24.60106637 13.13037109 27.50976562 C13.12467381 31.24596598 13.12795294 34.98209452 13.13394356 38.71829224 C13.13754985 41.58179266 13.13641027 44.44527593 13.13381577 47.30877686 C13.13314668 48.68674732 13.13397426 50.06471932 13.13629532 51.44268799 C13.13882292 53.36543754 13.13429024 55.28819252 13.12939453 57.2109375 C13.12859894 58.30712402 13.12780334 59.40331055 13.12698364 60.53271484 C13 63 13 63 12 64 C10.16884117 64.09851171 8.33380067 64.12972629 6.5 64.125 C5.4996875 64.12757813 4.499375 64.13015625 3.46875 64.1328125 C1 64 1 64 0 63 C-0.0940067 61.03630847 -0.11743381 59.06920801 -0.11352539 57.10327148 C-0.11344986 55.84203964 -0.11337433 54.5808078 -0.11329651 53.28135681 C-0.1081891 51.89460206 -0.10297309 50.50784771 -0.09765625 49.12109375 C-0.09579201 47.71004791 -0.09436814 46.29900143 -0.09336853 44.88795471 C-0.08954379 41.16759465 -0.0797139 37.4472734 -0.06866455 33.72692871 C-0.05844948 29.93319219 -0.05387071 26.13944942 -0.04882812 22.34570312 C-0.03809158 14.89711769 -0.0210157 7.44856428 0 0 Z " fill="#FEFEFE" transform="translate(345,152)"/>
<path d="M0 0 C3.3 0 6.6 0 10 0 C12.61425467 9.31904901 14.92389366 18.70037341 17.125 28.125 C17.50519287 29.73157471 17.50519287 29.73157471 17.89306641 31.37060547 C19.40060758 37.89134297 20.60504887 44.39933035 21.56591797 51.02294922 C22.00334765 54.02295906 22.49266088 57.01109872 23 60 C22.01 60 21.02 60 20 60 C19.7525 59.21625 19.505 58.4325 19.25 57.625 C17.76779118 54.51236148 16.96986543 54.46293371 14 53 C12.5 51.546875 12.5 51.546875 11 49.75 C10.40960938 49.05003906 9.81921875 48.35007813 9.2109375 47.62890625 C8.48132813 46.76136719 7.75171875 45.89382812 7 45 C5.97322197 43.81998673 4.94442352 42.64172973 3.9140625 41.46484375 C2.81757705 40.20584349 1.72122352 38.94672833 0.625 37.6875 C0.08875 37.07680664 -0.4475 36.46611328 -1 35.83691406 C-3.23867462 33.24665273 -4.90637294 31.28088118 -6 28 C-11.61684902 30.7486708 -15.41839436 34.22177068 -19.75 38.70703125 C-22.35206194 41.35878534 -25.09447126 43.7754961 -27.91015625 46.1953125 C-32.0009628 49.72793423 -35.98870732 53.37768115 -40 57 C-46.97108589 63.2951018 -53.95033214 69.57219564 -61.1171875 75.64453125 C-68.06110712 81.53923495 -74.85231271 87.5495268 -81.46923828 93.81103516 C-83.89836997 96.10074962 -86.21506477 98.14337651 -89 100 C-89.66 100.99 -90.32 101.98 -91 103 C-91.33 101.68 -91.66 100.36 -92 99 C-87.25 95 -87.25 95 -85 95 C-84.34 93.68 -83.68 92.36 -83 91 C-82.34 91 -81.68 91 -81 91 C-80.67 90.01 -80.34 89.02 -80 88 C-78.00390625 86.28125 -78.00390625 86.28125 -75.5625 84.5 C-72.6756702 82.3870074 -71.01015789 81.01523684 -69 78 C-68.01 78 -67.02 78 -66 78 C-65.76925781 77.42121094 -65.53851563 76.84242187 -65.30078125 76.24609375 C-63.67349767 73.4362197 -61.77112805 72.01862019 -59.1875 70.0625 C-56.29213526 67.82726171 -53.51890934 65.6550666 -51 63 C-50.34 62.34 -49.68 61.68 -49 61 C-48.34 61 -47.68 61 -47 61 C-47 60.34 -47 59.68 -47 59 C-45.20703125 57.44921875 -45.20703125 57.44921875 -42.8125 55.6875 C-39.21549375 53.0329929 -36.13528236 50.18607486 -33 47 C-28.64861454 42.84118212 -24.22226127 38.76061491 -19.8046875 34.67236328 C-18.24026243 33.22264578 -16.68205844 31.76622047 -15.125 30.30859375 C-14.34125 29.58800781 -13.5575 28.86742188 -12.75 28.125 C-12.08484375 27.50882813 -11.4196875 26.89265625 -10.734375 26.2578125 C-9 25 -9 25 -6 25 C-4.0546875 27.0546875 -4.0546875 27.0546875 -1.875 29.875 C1.87865498 34.62191109 5.77469113 39.15508691 9.84765625 43.62890625 C12.94721267 47.04348111 15.97577785 50.51874107 19 54 C18.38116261 48.43671437 17.44756569 43.07574333 16.1875 37.625 C16.01371826 36.85623535 15.83993652 36.0874707 15.66088867 35.29541016 C15.1108887 32.86276548 14.55607632 30.43126237 14 28 C13.26641745 24.7926495 12.53794974 21.58419863 11.8125 18.375 C11.64580811 17.65393066 11.47911621 16.93286133 11.30737305 16.18994141 C10.24179441 11.47337404 9.53466509 6.80658514 9 2 C6.03 2 3.06 2 0 2 C0 1.34 0 0.68 0 0 Z " fill="#DCE2EB" transform="translate(170,42)"/>
<path d="M0 0 C6.71505851 0.51871941 12.33352803 2.96402926 18.5 5.5625 C20.27974502 6.29981584 22.0594993 7.03710955 23.83950806 7.77378845 C25.80259808 8.5875418 27.76417416 9.40486676 29.72558594 10.22265625 C36.83656196 13.18393942 43.96590366 16.1007475 51.09280396 19.0234375 C53.62485046 20.06243864 56.15611827 21.10331808 58.68725586 22.14453125 C68.11909643 26.02118027 77.57458311 29.82496978 87.0625 33.5625 C95.62543434 36.94310205 103.8966894 40.62218283 112 45 C111.37547981 50.27747032 110.60695124 55.48702953 109.66015625 60.71875 C109.53313828 61.42092651 109.4061203 62.12310303 109.2752533 62.84655762 C109.00824494 64.31896502 108.74013077 65.79117229 108.47094727 67.26318359 C108.06362654 69.49383063 107.66148439 71.72536939 107.25976562 73.95703125 C106.99770784 75.39849426 106.73534807 76.8399024 106.47265625 78.28125 C106.12086304 80.21581055 106.12086304 80.21581055 105.76196289 82.18945312 C104.96604886 86.16978832 104.01429726 90.07045041 103 94 C102.67 94 102.34 94 102 94 C102.48235631 84.10374466 104.07013656 74.61223314 106.0625 64.9375 C106.48675018 62.85536606 106.90870003 60.77282881 107.32627869 58.68934631 C107.70093095 56.82306546 108.08278881 54.95823532 108.46508789 53.09350586 C109.11359071 49.86631712 109.11359071 49.86631712 109 46 C107.81664062 45.55269531 106.63328125 45.10539062 105.4140625 44.64453125 C91.04036422 39.16267492 91.04036422 39.16267492 85.875 36.4375 C79.82193515 33.25990141 73.3772048 31.05720287 66.96777344 28.71875 C59.70225105 26.06494133 52.55628248 23.3110661 45.5625 20 C39.87634639 17.31525435 34.09601931 15.20625888 28.15625 13.15625 C24.89345905 11.96097015 21.91440495 10.52900051 18.85546875 8.8984375 C16.08509102 7.55699144 13.18483535 6.71557426 10.25390625 5.79296875 C6.65386431 4.52640287 3.37268412 2.77832436 0 1 C0 0.67 0 0.34 0 0 Z " fill="#CFD8E7" transform="translate(81,144)"/>
<path d="M0 0 C0 0.66 0 1.32 0 2 C-1.093125 2.309375 -2.18625 2.61875 -3.3125 2.9375 C-5.55407994 3.58337897 -7.7869351 4.2623117 -10 5 C-10 5.66 -10 6.32 -10 7 C-11.40736515 7.97481664 -12.82129112 8.94155047 -14.26708984 9.85839844 C-17.1199064 11.73776872 -19.69869127 13.93109329 -22.3125 16.125 C-22.84939453 16.56714844 -23.38628906 17.00929688 -23.93945312 17.46484375 C-26.89681219 19.8741277 -26.89681219 19.8741277 -29 23 C-30.65848177 24.01351664 -32.32665961 25.01120795 -34 26 C-35.3303125 27.0828125 -35.3303125 27.0828125 -36.6875 28.1875 C-39 30 -39 30 -41 30 C-41 30.66 -41 31.32 -41 32 C-42.65848177 33.01351664 -44.32665961 34.01120795 -46 35 C-47.35432675 36.31200404 -48.68733482 37.64631404 -50 39 C-51.64639965 40.35827971 -53.31295807 41.69254251 -55 43 C-55.721875 43.5775 -56.44375 44.155 -57.1875 44.75 C-59 46 -59 46 -61 46 C-61.33 46.99 -61.66 47.98 -62 49 C-64.5625 50.1875 -64.5625 50.1875 -67 51 C-67 51.66 -67 52.32 -67 53 C-68.92587579 54.63139937 -70.84326717 56.13723225 -72.875 57.625 C-73.43058594 58.04523438 -73.98617187 58.46546875 -74.55859375 58.8984375 C-78.73764712 62 -78.73764712 62 -81 62 C-81 62.66 -81 63.32 -81 64 C-82.3984375 65.2265625 -82.3984375 65.2265625 -84.375 66.625 C-88.65368126 69.71388754 -92.72911885 73.00751554 -96.80078125 76.36328125 C-99 78 -99 78 -102 79 C-102 80.65 -102 82.3 -102 84 C-102.99 84.495 -102.99 84.495 -104 85 C-104.37395769 81.3288942 -104.50081117 79.61791107 -102.12890625 76.69140625 C-101.28199219 75.98886719 -100.43507812 75.28632812 -99.5625 74.5625 C-98.64597656 73.79164062 -97.72945312 73.02078125 -96.78515625 72.2265625 C-90.46158303 67.17125151 -90.46158303 67.17125151 -87.2578125 64.7265625 C-84.93769644 62.9523561 -82.65349545 61.13980823 -80.375 59.3125 C-79.54226562 58.64476562 -78.70953125 57.97703125 -77.8515625 57.2890625 C-76.91054687 56.53367188 -75.96953125 55.77828125 -75 55 C-72.58417687 53.06144582 -70.16746723 51.12400355 -67.75 49.1875 C-67.10836914 48.67340576 -66.46673828 48.15931152 -65.80566406 47.62963867 C-62.16169726 44.71455628 -58.50198134 41.821483 -54.82324219 38.95043945 C-48.97530025 34.3862536 -43.21423511 29.73067928 -37.5 25 C-31.10666149 19.70729598 -24.65504826 14.50496264 -18.09375 9.421875 C-16.15174329 7.90161722 -14.2311043 6.35322303 -12.34375 4.765625 C-5.45094937 -0.97837553 -5.45094937 -0.97837553 0 0 Z " fill="#D4D9E3" transform="translate(153,41)"/>
<path d="M0 0 C-2.86266484 2.37314463 -5.22057244 3.55498725 -8.81640625 4.46484375 C-9.74018066 4.70549561 -10.66395508 4.94614746 -11.61572266 5.1940918 C-12.58815918 5.4394165 -13.5605957 5.68474121 -14.5625 5.9375 C-21.3854636 7.72026011 -28.02052597 9.60388403 -34.60546875 12.14453125 C-38.14523089 13.40914448 -41.76858336 14.21565075 -45.421875 15.0859375 C-50.0489333 16.26795894 -54.61476407 17.62451969 -59.1875 19 C-60.01886475 19.24927246 -60.85022949 19.49854492 -61.70678711 19.75537109 C-66.51296237 21.2094763 -71.28145096 22.74431257 -76.02832031 24.38208008 C-78.65013142 25.20374971 -81.27857497 25.65109935 -84 26 C-84.33 26.99 -84.66 27.98 -85 29 C-89.95 29.495 -89.95 29.495 -95 30 C-95 29.01 -95 28.02 -95 27 C-47.52267539 12.22041834 -47.52267539 12.22041834 -29.52539062 7.14135742 C-25.36756245 5.96768696 -21.21920566 4.77335975 -17.0859375 3.515625 C-16.3110498 3.28117676 -15.53616211 3.04672852 -14.73779297 2.80517578 C-13.29494204 2.36662214 -11.85371118 1.92268482 -10.41455078 1.47216797 C-6.84317369 0.39044848 -3.73570015 -0.24425732 0 0 Z " fill="#D2D9E6" transform="translate(140,218)"/>
<path d="M0 0 C0 0.66 0 1.32 0 2 C-17.92710136 3.34575578 -35.8525448 4.50089304 -53.80615234 5.43261719 C-57.55460327 5.62784385 -61.30268399 5.82935845 -65.05078125 6.03125 C-67.48175127 6.1592263 -69.9127402 6.28684405 -72.34375 6.4140625 C-73.44078247 6.47340973 -74.53781494 6.53275696 -75.66809082 6.59390259 C-82.7849958 6.95728444 -89.87426984 7.06733115 -97 7 C-94.5243064 4.5243064 -93.54091975 4.66269374 -90.11401367 4.41992188 C-89.12267426 4.34636475 -88.13133484 4.27280762 -87.10995483 4.19702148 C-85.57052719 4.09949585 -85.57052719 4.09949585 -84 4 C-83.05355621 3.9369165 -82.10711243 3.87383301 -81.13198853 3.80883789 C-78.1472305 3.61935972 -75.16189918 3.44788301 -72.17578125 3.28125 C-71.07187546 3.21844849 -69.96796967 3.15564697 -68.83061218 3.09094238 C-66.50195429 2.95895841 -64.1732432 2.82791001 -61.84448242 2.69775391 C-58.36686481 2.50304386 -54.88948282 2.30448622 -51.41210938 2.10546875 C-40.18776577 1.4691412 -28.96286854 0.88173677 -17.73046875 0.40625 C-16.7499202 0.36431519 -15.76937164 0.32238037 -14.7591095 0.2791748 C-9.83450644 0.07913177 -4.92860648 -0.04422945 0 0 Z " fill="#D7DDEC" transform="translate(183,238)"/>
<path d="M0 0 C2 1.625 2 1.625 3 4 C2.87988224 7.42335626 2.60726153 9.95416069 0.875 12.9375 C-2.18452459 14.6712306 -4.56817525 14.42145216 -8 14 C-10.4375 12.4375 -10.4375 12.4375 -12 10 C-12.5625 6.5 -12.5625 6.5 -12 3 C-8.33340589 -1.4443565 -5.38867153 -1.59664341 0 0 Z " fill="#FDFDFD" transform="translate(356,127)"/>
<path d="M0 0 C3.3 0 6.6 0 10 0 C12.61425467 9.31904901 14.92389366 18.70037341 17.125 28.125 C17.37846191 29.1960498 17.63192383 30.26709961 17.89306641 31.37060547 C19.40060758 37.89134297 20.60504887 44.39933035 21.56591797 51.02294922 C22.00334765 54.02295906 22.49266088 57.01109872 23 60 C22.01 60 21.02 60 20 60 C19.01 58.02 18.02 56.04 17 54 C17.66 54 18.32 54 19 54 C18.38116261 48.43671437 17.44756569 43.07574333 16.1875 37.625 C15.92682739 36.47185303 15.92682739 36.47185303 15.66088867 35.29541016 C15.1108887 32.86276548 14.55607632 30.43126237 14 28 C13.26641745 24.7926495 12.53794974 21.58419863 11.8125 18.375 C11.64580811 17.65393066 11.47911621 16.93286133 11.30737305 16.18994141 C10.24179441 11.47337404 9.53466509 6.80658514 9 2 C6.03 2 3.06 2 0 2 C0 1.34 0 0.68 0 0 Z " fill="#D4D9E5" transform="translate(170,42)"/>
<path d="M0 0 C0.99 0.33 1.98 0.66 3 1 C1.71034824 2.37562854 0.37310707 3.70766393 -1 5 C-1.66 5 -2.32 5 -3 5 C-3 5.66 -3 6.32 -3 7 C-4.92587579 8.63139937 -6.84326717 10.13723225 -8.875 11.625 C-9.43058594 12.04523438 -9.98617187 12.46546875 -10.55859375 12.8984375 C-14.73764712 16 -14.73764712 16 -17 16 C-17 16.66 -17 17.32 -17 18 C-18.3984375 19.2265625 -18.3984375 19.2265625 -20.375 20.625 C-24.65368126 23.71388754 -28.72911885 27.00751554 -32.80078125 30.36328125 C-35 32 -35 32 -38 33 C-38 34.65 -38 36.3 -38 38 C-38.99 38.495 -38.99 38.495 -40 39 C-40.37395769 35.3288942 -40.50081117 33.61791107 -38.12890625 30.69140625 C-37.28199219 29.98886719 -36.43507812 29.28632812 -35.5625 28.5625 C-34.64597656 27.79164062 -33.72945312 27.02078125 -32.78515625 26.2265625 C-26.46401322 21.1731943 -26.46401322 21.1731943 -23.2734375 18.73828125 C-20.86552183 16.89717735 -18.49226284 15.0180635 -16.125 13.125 C-15.30128906 12.46886719 -14.47757813 11.81273438 -13.62890625 11.13671875 C-11.74085041 9.60214737 -9.87618496 8.03862866 -8.02734375 6.45703125 C-7.04894531 5.62558594 -6.07054687 4.79414062 -5.0625 3.9375 C-3.71865234 2.77541016 -3.71865234 2.77541016 -2.34765625 1.58984375 C-1.57292969 1.06519531 -0.79820313 0.54054688 0 0 Z " fill="#DAE1EC" transform="translate(89,87)"/>
<path d="M0 0 C2.31 0.33 4.62 0.66 7 1 C7 1.66 7 2.32 7 3 C7.97839844 3.14695313 7.97839844 3.14695313 8.9765625 3.296875 C14.67093528 4.27113347 18.23743289 5.62651497 23 9 C26.28681387 10.45970284 29.62933255 11.74765715 33 13 C32.67 13.99 32.34 14.98 32 16 C29.21673205 17.35910331 26.17432971 18.01431545 23.1875 18.8125 C22.36701172 19.05419922 21.54652344 19.29589844 20.70117188 19.54492188 C19.90646484 19.76341797 19.11175781 19.98191406 18.29296875 20.20703125 C17.5661792 20.4078833 16.83938965 20.60873535 16.09057617 20.81567383 C13.4943237 21.0445855 12.19681511 20.33146879 10 19 C12.4363189 18.32873871 14.87388883 17.66283646 17.3125 17 C18.00279297 16.80921875 18.69308594 16.6184375 19.40429688 16.421875 C22.35787949 15.62283816 24.92559219 15 28 15 C25.52616317 12.11176675 22.99996468 10.98278132 19.4921875 9.58984375 C18.42355469 9.15736328 17.35492188 8.72488281 16.25390625 8.27929688 C15.13886719 7.83650391 14.02382812 7.39371094 12.875 6.9375 C10.66159236 6.05696527 8.4505108 5.17055311 6.2421875 4.27734375 C5.2610498 3.88796631 4.27991211 3.49858887 3.26904297 3.09741211 C1 2 1 2 0 0 Z " fill="#EAEEF5" transform="translate(128,198)"/>
<path d="M0 0 C0.66 0 1.32 0 2 0 C2.02191406 0.76183594 2.04382812 1.52367187 2.06640625 2.30859375 C2.77228605 5.31537167 2.77228605 5.31537167 6.02734375 6.66015625 C7.32339828 7.14756137 8.62749647 7.61393356 9.9375 8.0625 C10.62118652 8.31580078 11.30487305 8.56910156 12.00927734 8.83007812 C13.37914458 9.33736465 14.75186102 9.83702965 16.12744141 10.32861328 C23.61404165 13.01285718 30.82599127 16.25070966 38.01953125 19.6328125 C40.65366198 20.84112935 43.29900379 21.95155415 46 23 C46 23.66 46 24.32 46 25 C38.3643417 22.57158359 30.97775456 19.65497702 23.5625 16.625 C22.39912109 16.15578125 21.23574219 15.6865625 20.03710938 15.203125 C13.19786729 12.41662457 6.54290346 9.42692389 0 6 C0 4.02 0 2.04 0 0 Z " fill="#E4ECF4" transform="translate(43,157)"/>
<path d="M0 0 C0 0.33 0 0.66 0 1 C-5.19183474 1.28903315 -10.38388635 1.57367321 -15.57617188 1.85449219 C-17.33730341 1.9503317 -19.09837349 2.04730825 -20.859375 2.14550781 C-30.57966644 2.68675131 -40.25975884 3.17736403 -50 3 C-47.5631046 0.5631046 -46.73731671 0.67621433 -43.375 0.4375 C-42.39015625 0.3653125 -41.4053125 0.293125 -40.390625 0.21875 C-39.27171875 0.1465625 -38.1528125 0.074375 -37 0 C-35.10507813 -0.13921875 -35.10507813 -0.13921875 -33.171875 -0.28125 C-22.09348011 -1.07025183 -11.01921285 -1.72850398 0 0 Z " fill="#E1E4F2" transform="translate(136,242)"/>
<path d="M0 0 C0.66 0 1.32 0 2 0 C0.5113044 14.86128885 -2.87734273 29.41633864 -6 44 C-6.33 44 -6.66 44 -7 44 C-6.51080956 34.00223758 -4.92207597 24.46625501 -2.9375 14.6875 C-2.65230178 13.25339285 -2.36779275 11.81914847 -2.08398438 10.38476562 C-1.39722918 6.92156497 -0.7012767 3.46029319 0 0 Z " fill="#D8DFEA" transform="translate(190,194)"/>
<path d="M0 0 C13.45419847 3.22900763 13.45419847 3.22900763 18.875 7 C22.22436913 9.14359625 25.15683376 10.05733658 29 11 C29.99 11.33 30.98 11.66 32 12 C32 12.66 32 13.32 32 14 C32.99 14.33 33.98 14.66 35 15 C31.01266193 16.32911269 28.84940829 14.92964872 25.21484375 13.2890625 C24.22950401 12.85767471 24.22950401 12.85767471 23.22425842 12.41757202 C21.12457179 11.49571425 19.03113058 10.56051838 16.9375 9.625 C15.52317098 9.00173088 14.10846146 8.37932442 12.69335938 7.7578125 C2.83921639 3.41960819 2.83921639 3.41960819 0 2 C0 1.34 0 0.68 0 0 Z " fill="#E1E9F1" transform="translate(92,182)"/>
<path d="M0 0 C0.66 0.66 1.32 1.32 2 2 C-14.13476814 17.38601263 -14.13476814 17.38601263 -22.9609375 24.265625 C-25.21025854 26.01812072 -25.21025854 26.01812072 -27 29 C-27.33 27.68 -27.66 26.36 -28 25 C-23.25 21 -23.25 21 -21 21 C-20.34 19.68 -19.68 18.36 -19 17 C-18.34 17 -17.68 17 -17 17 C-16.67 16.01 -16.34 15.02 -16 14 C-14.00390625 12.28125 -14.00390625 12.28125 -11.5625 10.5 C-8.6756702 8.3870074 -7.01015789 7.01523684 -5 4 C-4.01 4 -3.02 4 -2 4 C-1.34 2.68 -0.68 1.36 0 0 Z " fill="#E3E9F1" transform="translate(106,116)"/>
<path d="M0 0 C0.33 0 0.66 0 1 0 C-0.69527785 22.26167493 -0.69527785 22.26167493 -4 28 C-4.34009604 18.40173405 -3.85689293 8.91298786 0 0 Z " fill="#E1E8F0" transform="translate(49,127)"/>
<path d="M0 0 C-2.25232264 2.5825084 -4.01171884 3.5477756 -7.30859375 4.421875 C-8.13810547 4.64230469 -8.96761719 4.86273438 -9.82226562 5.08984375 C-10.68529297 5.30769531 -11.54832031 5.52554688 -12.4375 5.75 C-13.29666016 5.98332031 -14.15582031 6.21664062 -15.04101562 6.45703125 C-22.05194855 8.2736733 -22.05194855 8.2736733 -26 7 C-21.15411442 5.09965271 -16.27162745 3.39603956 -11.3125 1.8125 C-9.69794922 1.29623047 -9.69794922 1.29623047 -8.05078125 0.76953125 C-5.21243932 0.05358585 -2.90765746 -0.15644168 0 0 Z " fill="#C5CCDC" transform="translate(99,230)"/>
<path d="M0 0 C6.20819443 0.01425533 12.20364598 0.17027167 18.33984375 1.1328125 C18.33984375 1.4628125 18.33984375 1.7928125 18.33984375 2.1328125 C-1.00058178 3.32430186 -1.00058178 3.32430186 -10.66015625 3.1328125 C-10.66015625 2.8028125 -10.66015625 2.4728125 -10.66015625 2.1328125 C-9.52578125 1.9884375 -8.39140625 1.8440625 -7.22265625 1.6953125 C-3.85258385 1.16319581 -3.16872702 0.1582037 0 0 Z " fill="#E7EBF6" transform="translate(117.66015625,240.8671875)"/>
<path d="M0 0 C5.61 0.33 11.22 0.66 17 1 C17 1.66 17 2.32 17 3 C9.08 3.495 9.08 3.495 1 4 C0.67 2.68 0.34 1.36 0 0 Z " fill="#E9ECF9" transform="translate(153,41)"/>
<path d="M0 0 C-3.1664178 2.70972293 -5.96936423 3.76249424 -10 4.75 C-11.546875 5.14445313 -11.546875 5.14445313 -13.125 5.546875 C-15.87430977 5.98019013 -17.41340535 5.92023079 -20 5 C-6.08928571 -0.36904762 -6.08928571 -0.36904762 0 0 Z " fill="#C9CEDD" transform="translate(140,218)"/>
<path d="M0 0 C10.96938776 2.63265306 10.96938776 2.63265306 16 5 C16.33 5.66 16.66 6.32 17 7 C13.99353048 8.30230734 12.90644333 7.96485975 9.765625 6.78515625 C8.60546875 6.21667969 7.4453125 5.64820313 6.25 5.0625 C4.49429688 4.21365234 4.49429688 4.21365234 2.703125 3.34765625 C1.81109375 2.90292969 0.9190625 2.45820313 0 2 C0 1.34 0 0.68 0 0 Z " fill="#E9EFF6" transform="translate(92,182)"/>
<path d="M0 0 C0.66 0 1.32 0 2 0 C2.05027344 0.76699219 2.10054687 1.53398437 2.15234375 2.32421875 C2.75359603 5.22071325 2.75359603 5.22071325 5.50390625 6.58203125 C7.01791016 7.19111328 7.01791016 7.19111328 8.5625 7.8125 C9.57441406 8.23144531 10.58632813 8.65039062 11.62890625 9.08203125 C12.41136719 9.38496094 13.19382812 9.68789062 14 10 C11.26980214 11.06528748 10.20701188 11.07998186 7.421875 10.00390625 C6.54015625 9.52824219 5.6584375 9.05257812 4.75 8.5625 C3.85796875 8.08941406 2.9659375 7.61632812 2.046875 7.12890625 C1.37140625 6.75636719 0.6959375 6.38382813 0 6 C0 4.02 0 2.04 0 0 Z " fill="#D6DCE5" transform="translate(43,157)"/>
<path d="M0 0 C0.99 0.33 1.98 0.66 3 1 C1.71372289 2.17260611 0.42080217 3.3379283 -0.875 4.5 C-1.59429687 5.1496875 -2.31359375 5.799375 -3.0546875 6.46875 C-5 8 -5 8 -7 8 C-7 9.65 -7 11.3 -7 13 C-7.99 13.495 -7.99 13.495 -9 14 C-9.28125 11.2734375 -9.28125 11.2734375 -9 8 C-7.03125 5.6640625 -7.03125 5.6640625 -4.5 3.625 C-3.6646875 2.93664062 -2.829375 2.24828125 -1.96875 1.5390625 C-1.3190625 1.03117187 -0.669375 0.52328125 0 0 Z " fill="#D8DDE9" transform="translate(58,112)"/>
<path d="M0 0 C2.31 0.33 4.62 0.66 7 1 C7 1.66 7 2.32 7 3 C7.721875 3.103125 8.44375 3.20625 9.1875 3.3125 C12.24491993 4.05986932 14.38329635 5.28045189 17 7 C16.01 7.495 16.01 7.495 15 8 C12.57811713 7.13986463 10.28234422 6.22315901 7.9375 5.1875 C7.28716797 4.91357422 6.63683594 4.63964844 5.96679688 4.35742188 C1.12912168 2.25824336 1.12912168 2.25824336 0 0 Z " fill="#E4E7EF" transform="translate(128,198)"/>
<path d="M0 0 C0.66 0.33 1.32 0.66 2 1 C-6.261959 9.44646925 -6.261959 9.44646925 -11 13 C-11.66 12.67 -12.32 12.34 -13 12 C-8.87675353 7.74790208 -4.48717034 3.86364295 0 0 Z " fill="#CED5E2" transform="translate(145,82)"/>
<path d="M0 0 C4 1 4 1 4 1 Z M-2 1 C-1.34 1.33 -0.68 1.66 0 2 C-1.375 3.5 -1.375 3.5 -3 5 C-3.66 5 -4.32 5 -5 5 C-5 4.34 -5 3.68 -5 3 C-4.01 2.34 -3.02 1.68 -2 1 Z M-7 5 C-6.34 5.33 -5.68 5.66 -5 6 C-5.8125 7.9375 -5.8125 7.9375 -7 10 C-7.99 10.33 -8.98 10.66 -10 11 C-10.66 10.34 -11.32 9.68 -12 9 C-10.35 7.68 -8.7 6.36 -7 5 Z " fill="#F2F7FB" transform="translate(148,43)"/>
<path d="M0 0 C1.98203709 0.61583656 3.9605772 1.24293834 5.9375 1.875 C7.59072266 2.39707031 7.59072266 2.39707031 9.27734375 2.9296875 C12 4 12 4 13 6 C7.54520815 5.43179252 3.08940744 4.05362055 -2 2 C-1.34 1.34 -0.68 0.68 0 0 Z " fill="#E0E4EF" transform="translate(57,167)"/>
<path d="M0 0 C1.5 1.25 1.5 1.25 3 3 C3 4.32 3 5.64 3 7 C2.01 7 1.02 7 0 7 C-0.99 5.02 -1.98 3.04 -3 1 C-2.01 0.67 -1.02 0.34 0 0 Z " fill="#BECDDC" transform="translate(190,95)"/>
<path d="M0 0 C0.99 0.33 1.98 0.66 3 1 C1.71034824 2.37562854 0.37310707 3.70766393 -1 5 C-1.66 5 -2.32 5 -3 5 C-3 5.66 -3 6.32 -3 7 C-3.99 7.33 -4.98 7.66 -6 8 C-5.66354211 4.85972637 -4.94763914 3.94901705 -2.625 1.6875 C-1.75875 1.130625 -0.8925 0.57375 0 0 Z " fill="#DDE2EE" transform="translate(89,87)"/>
<path d="M0 0 C2 1 2 1 2.703125 2.99609375 C2.88359375 3.80175781 3.0640625 4.60742188 3.25 5.4375 C3.44078125 6.24058594 3.6315625 7.04367188 3.828125 7.87109375 C3.88484375 8.57363281 3.9415625 9.27617188 4 10 C3.34 10.66 2.68 11.32 2 12 C0.70756464 7.8803623 -0.26252625 4.33168317 0 0 Z " fill="#C9CFDD" transform="translate(184,66)"/>
<path d="M0 0 C4.3177458 0.50797009 8.03302114 1.19682779 12 3 C10.265625 4.1171875 10.265625 4.1171875 8 5 C5.859375 4.3203125 5.859375 4.3203125 3.75 3.125 C3.04359375 2.73570312 2.3371875 2.34640625 1.609375 1.9453125 C1.07828125 1.63335937 0.5471875 1.32140625 0 1 C0 0.67 0 0.34 0 0 Z " fill="#DEE8F1" transform="translate(81,144)"/>
<path d="M0 0 C0.66 0.33 1.32 0.66 2 1 C2 1.66 2 2.32 2 3 C-0.97 4.65 -3.94 6.3 -7 8 C-4.9957983 3.9915966 -3.50944037 2.58590343 0 0 Z " fill="#D7DCE7" transform="translate(98,80)"/>
<path d="M0 0 C-1.75 2.0625 -1.75 2.0625 -4 4 C-6.25 3.75 -6.25 3.75 -8 3 C-5.53387212 -0.1151089 -3.89156016 -0.31553191 0 0 Z " fill="#B4C4DB" transform="translate(52,244)"/>
<path d="M0 0 C0.99 0.33 1.98 0.66 3 1 C0.03 3.475 0.03 3.475 -3 6 C-3.66 5.67 -4.32 5.34 -5 5 C-3.35 3.35 -1.7 1.7 0 0 Z " fill="#DDE4EF" transform="translate(112,111)"/>
</svg>
